<svg width="19" height="20" viewBox="0 0 19 20" fill="none" xmlns="http://www.w3.org/2000/svg">
<path fill-rule="evenodd" clip-rule="evenodd" d="M3 0C1.34315 0 0 1.34315 0 3V19C0 19.5523 0.44772 20 1 20H11C11.5523 20 12 19.5523 12 19V11H12.694C13.3025 11 13.77 11.539 13.6839 12.1414L13.313 14.738C13.067 16.4596 14.403 18 16.1421 18C17.7205 18 19 16.7205 19 15.1421V5.91421C19 5.38378 18.7893 4.87507 18.4142 4.5L15.2071 1.29289L13.7929 2.70711L15 3.91421V6.86496C15 7.16174 15.1318 7.44319 15.3598 7.63318L17 9V15.1421C17 15.6159 16.6159 16 16.1421 16C15.6201 16 15.2191 15.5376 15.2929 15.0208L15.6638 12.4243C15.922 10.617 14.5196 9 12.694 9H12V3C12 1.34315 10.6569 0 9 0H3ZM10 10V3C10 2.44772 9.5523 2 9 2H3C2.44772 2 2 2.44772 2 3V18H10V10ZM4.5 4C4.22386 4 4 4.22386 4 4.5V9H8V4.5C8 4.22386 7.7761 4 7.5 4H4.5Z" fill="#B0B9BC"/>
</svg>
