<svg width="16" height="16" viewBox="0 0 16 16" fill="none" xmlns="http://www.w3.org/2000/svg">
<path d="M5.33502 0.666672C4.23837 0.666672 3.33502 1.57003 3.33502 2.66667V14H2.66835C2.58001 13.9988 2.4923 14.0151 2.41032 14.048C2.32834 14.081 2.25373 14.1299 2.19081 14.1919C2.1279 14.2539 2.07794 14.3278 2.04385 14.4093C2.00975 14.4909 1.99219 14.5783 1.99219 14.6667C1.99219 14.755 2.00975 14.8425 2.04385 14.924C2.07794 15.0055 2.1279 15.0794 2.19081 15.1414C2.25373 15.2035 2.32834 15.2524 2.41032 15.2853C2.4923 15.3183 2.58001 15.3346 2.66835 15.3333H12.0017C12.09 15.3346 12.1777 15.3183 12.2597 15.2853C12.3417 15.2524 12.4163 15.2035 12.4792 15.1414C12.5421 15.0794 12.5921 15.0055 12.6262 14.924C12.6603 14.8425 12.6778 14.755 12.6778 14.6667C12.6778 14.5783 12.6603 14.4909 12.6262 14.4093C12.5921 14.3278 12.5421 14.2539 12.4792 14.1919C12.4163 14.1299 12.3417 14.081 12.2597 14.048C12.1777 14.0151 12.09 13.9988 12.0017 14H11.335V12H12.6683C13.765 12 14.6683 11.0967 14.6683 10V5.33334C14.6684 5.16035 14.6011 4.99414 14.4808 4.8698L12.7816 3.11719C12.7205 3.05223 12.6469 3.0002 12.5653 2.96419C12.4836 2.92818 12.3956 2.90892 12.3064 2.90756C12.1737 2.90552 12.0434 2.94314 11.9322 3.0156C11.8209 3.08806 11.7339 3.19206 11.6822 3.31429C11.6304 3.43652 11.6163 3.57141 11.6417 3.70169C11.6671 3.83197 11.7308 3.95171 11.8246 4.04558L12.6683 4.91537V6.00001C12.6683 6.36801 12.967 6.66667 13.335 6.66667V10C13.335 10.3767 13.045 10.6667 12.6683 10.6667H11.335V2.66667C11.335 1.57003 10.4317 0.666672 9.33502 0.666672H5.33502ZM5.33502 2.00001H9.33502C9.7117 2.00001 10.0017 2.28998 10.0017 2.66667V4.00001H4.66835V2.66667C4.66835 2.28998 4.95833 2.00001 5.33502 2.00001Z" fill="#B0BABF"/>
</svg>
