<svg width="32" height="32" viewBox="0 0 32 32" fill="none" xmlns="http://www.w3.org/2000/svg">
<path d="M30.0026 14.6667H2.0026C1.6346 14.6667 1.33594 14.9654 1.33594 15.3334V16.6667C1.33594 17.0347 1.6346 17.3334 2.0026 17.3334H30.0026C30.3706 17.3334 30.6693 17.0347 30.6693 16.6667V15.3334C30.6693 14.9654 30.3706 14.6667 30.0026 14.6667Z" fill="#080F26"/>
<path d="M15.3359 24H2.0026C1.6346 24 1.33594 24.2987 1.33594 24.6667V26C1.33594 26.368 1.6346 26.6667 2.0026 26.6667H15.3359C15.7039 26.6667 16.0026 26.368 16.0026 26V24.6667C16.0026 24.2987 15.7039 24 15.3359 24Z" fill="#080F26"/>
<path d="M30 5.33334H16.6667C16.2987 5.33334 16 5.63201 16 6.00001V7.33334C16 7.70134 16.2987 8.00001 16.6667 8.00001H30C30.368 8.00001 30.6667 7.70134 30.6667 7.33334V6.00001C30.6667 5.63201 30.368 5.33334 30 5.33334Z" fill="#080F26"/>
</svg>
