<svg width="24" height="24" viewBox="0 0 24 24" fill="none" xmlns="http://www.w3.org/2000/svg">
<path fill-rule="evenodd" clip-rule="evenodd" d="M11.0403 2.39994C11.0403 1.86975 11.4701 1.43994 12.0003 1.43994H15.8403C16.3705 1.43994 16.8003 1.86975 16.8003 2.39994C16.8003 2.93013 16.3705 3.35994 15.8403 3.35994H14.3179L18.9191 7.96112C20.6195 9.66148 20.6195 12.4184 18.9191 14.1188C17.2187 15.8191 14.4618 15.8191 12.7615 14.1188L9.88144 11.2388C8.93086 10.2882 7.38967 10.2882 6.43908 11.2388C5.48851 12.1893 5.48851 13.7305 6.43909 14.6811L10.5429 18.7849C10.7016 18.7426 10.8683 18.7199 11.0403 18.7199C12.1006 18.7199 12.9603 19.5795 12.9603 20.6399C12.9603 21.7004 12.1006 22.5599 11.0403 22.5599C9.97988 22.5599 9.12027 21.7004 9.12027 20.6399C9.12027 20.4679 9.14288 20.3013 9.1853 20.1427L5.08144 16.0388C3.38106 14.3384 3.38105 11.5815 5.08144 9.88113C6.78183 8.18074 9.5387 8.18074 11.2391 9.88113L14.1191 12.7611C15.0697 13.7117 16.6109 13.7117 17.5615 12.7611C18.5121 11.8105 18.5121 10.2694 17.5615 9.31877L12.9603 4.71758V6.23994C12.9603 6.77013 12.5305 7.19994 12.0003 7.19994C11.4701 7.19994 11.0403 6.77013 11.0403 6.23994V2.39994Z" fill="#B0B9BC"/>
</svg>
