<svg width="20" height="20" viewBox="0 0 20 20" fill="none" xmlns="http://www.w3.org/2000/svg">
<path d="M19.5837 0.417237C19.5837 0.417237 12.4004 0.399502 6.80073 5.99916C6.54228 6.25761 6.31678 6.53886 6.11407 6.83025C5.12083 6.7517 3.60056 6.77704 2.82269 7.55744C1.00596 9.37163 0.400391 12.3995 0.400391 12.3995L4.40124 11.8269V13.2002L6.80073 15.5997H8.17404L7.60141 19.6005C7.60141 19.6005 10.6293 18.9949 12.4435 17.1782C13.2239 16.4003 13.2492 14.8801 13.1707 13.8868C13.462 13.6841 13.7433 13.4586 14.0017 13.2002C19.6014 7.60051 19.5837 0.417237 19.5837 0.417237ZM13.2011 5.20102C14.0854 5.20102 14.7999 5.91555 14.7999 6.79984C14.7999 7.68413 14.0854 8.40119 13.2011 8.40119C12.3168 8.40119 11.5997 7.68413 11.5997 6.79984C11.5997 5.91555 12.3168 5.20102 13.2011 5.20102ZM3.76019 13.9958C3.45613 14.0769 3.16728 14.2289 2.93164 14.4671C1.83705 15.5591 2.01188 17.9865 2.01188 17.9865C2.01188 17.9865 4.42404 18.1765 5.5313 17.0693C5.76695 16.8311 5.92151 16.5422 6.00005 16.2382L5.63519 15.8708C5.59972 15.924 5.57691 15.9823 5.5313 16.0279C4.7509 16.8083 3.58029 16.4181 3.58029 16.4181C3.58029 16.4181 3.19009 15.25 3.97049 14.4696C4.01863 14.4215 4.07438 14.4012 4.12505 14.3632L3.76019 13.9958Z" fill="url(#paint0_linear_6755_27871)"/>
<defs>
<linearGradient id="paint0_linear_6755_27871" x1="13.6356" y1="21.9863" x2="3.58161" y2="1.4234" gradientUnits="userSpaceOnUse">
<stop stop-color="#07FFD8"/>
<stop offset="1" stop-color="#157EFF"/>
</linearGradient>
</defs>
</svg>
