<svg width="24" height="24" viewBox="0 0 24 24" fill="none" xmlns="http://www.w3.org/2000/svg">
<path d="M19.95 4.8C19.2 4.42 18.37 4 17 4C15.63 4 14.8 4.42 14.05 4.8C13.4 5.12 12.87 5.4 12 5.4C11.1 5.4 10.6 5.15 9.95 4.8C9.2 4.43 8.38 4 7 4C5.62 4 4.8 4.42 4.05 4.8C3.67263 4.99159 3.33909 5.16295 2.95347 5.27299C2.44098 5.41925 2 5.83204 2 6.365C2 6.89795 2.43551 7.34084 2.96084 7.25103C3.78633 7.10991 4.39549 6.80356 4.95 6.53C5.6 6.2 6.12 5.93 7 5.93C7.88 5.93 8.4 6.18 9.05 6.53C9.8 6.91 10.62 7.33 12 7.33C13.38 7.33 14.2 6.9 14.95 6.53C15.6 6.21 16.13 5.93 17 5.93C17.9 5.93 18.4 6.18 19.05 6.53C19.6041 6.81076 20.202 7.11336 21.029 7.25226C21.56 7.34145 22 6.89348 22 6.355C22 5.81652 21.5548 5.40161 21.0353 5.25985C20.6526 5.15542 20.3265 4.99113 19.95 4.8Z" fill="#B0B9BC"/>
<path d="M14.05 10.8C14.8 10.43 15.65 10 17 10C18.35 10 19.2 10.42 19.95 10.8C20.3266 11.0028 20.6528 11.172 21.0356 11.2784C21.5544 11.4227 22 11.8365 22 12.375C22 12.9135 21.56 13.3615 21.029 13.2723C20.202 13.1334 19.6041 12.8308 19.05 12.55C18.4 12.2 17.9 11.95 17 11.95C16.13 11.95 15.6 12.23 14.95 12.55C14.2 12.92 13.38 13.35 12 13.35C10.6288 13.35 9.81051 12.9354 9.0644 12.5573L9.05 12.55C8.4 12.2 7.87 11.95 7 11.95C6.13 11.95 5.6 12.23 4.95 12.55C4.39771 12.8225 3.79119 13.1275 2.97072 13.2693C2.44011 13.3611 2 12.9135 2 12.375C2 11.8365 2.44562 11.4227 2.9644 11.2784C3.34722 11.172 3.67344 11.0028 4.05 10.8C4.8 10.43 5.62 10 7 10C8.37117 10 9.18949 10.4146 9.9356 10.7927L9.95 10.8C10.6 11.15 11.1 11.4 12 11.4C12.9 11.4 13.4 11.15 14.05 10.8Z" fill="#B0B9BC"/>
<path d="M14.05 16.8C14.8 16.43 15.65 16 17 16C18.35 16 19.2 16.42 19.95 16.8C20.3266 17.0028 20.6528 17.172 21.0356 17.2784C21.5544 17.4227 22 17.8365 22 18.375C22 18.9135 21.56 19.3615 21.029 19.2723C20.202 19.1334 19.6041 18.8308 19.05 18.55C18.4 18.2 17.9 17.95 17 17.95C16.13 17.95 15.6 18.23 14.95 18.55C14.2 18.92 13.38 19.35 12 19.35C10.6288 19.35 9.81051 18.9354 9.0644 18.5573L9.05 18.55C8.4 18.2 7.87 17.95 7 17.95C6.13 17.95 5.6 18.23 4.95 18.55C4.39771 18.8225 3.79119 19.1275 2.97072 19.2693C2.44011 19.3611 2 18.9135 2 18.375C2 17.8365 2.44562 17.4227 2.9644 17.2784C3.34722 17.172 3.67344 17.0028 4.05 16.8C4.8 16.43 5.62 16 7 16C8.37117 16 9.18949 16.4146 9.9356 16.7927L9.95 16.8C10.6 17.15 11.1 17.4 12 17.4C12.9 17.4 13.4 17.15 14.05 16.8Z" fill="#B0B9BC"/>
</svg>
