<svg width="17" height="17" viewBox="0 0 17 17" fill="none" xmlns="http://www.w3.org/2000/svg">
<path d="M15.6356 7.0667L8.94038 0.371465C8.45115 -0.117758 7.59032 -0.13027 7.04604 0.372717L0.383341 7.0667C-0.125902 7.57594 -0.129655 8.40425 0.383341 8.96103L7.04604 15.6237C7.29253 15.869 7.62535 16.0054 7.98195 16.0054C8.33354 16.0054 8.67137 15.8727 8.94038 15.6237L15.6031 8.96103C16.1336 8.42927 16.1486 7.5797 15.6356 7.0667ZM7.49648 4.60181C7.49648 4.538 7.52901 4.47419 7.62535 4.47419H8.36232C8.42613 4.47419 8.48994 4.50672 8.48994 4.60181V9.24631C8.48994 9.31012 8.45741 9.37519 8.36232 9.37519H7.62535C7.56154 9.37519 7.49648 9.34265 7.49648 9.24631V4.60181ZM8.52247 11.4247C8.52247 11.4885 8.48994 11.5523 8.3936 11.5523H7.62535C7.56154 11.5523 7.49773 11.521 7.49773 11.4247V10.5601C7.49773 10.4963 7.52901 10.4325 7.62535 10.4325H8.3936V10.4637C8.45866 10.4637 8.52247 10.4963 8.52247 10.5914V11.4247Z" fill="#FA8D7F"/>
</svg>
