<svg width="16" height="16" viewBox="0 0 16 16" fill="none" xmlns="http://www.w3.org/2000/svg">
<path d="M13.082 12.3334C12.419 12.3334 11.7831 12.07 11.3143 11.6011C10.8454 11.1323 10.582 10.4964 10.582 9.83337C10.582 9.17033 10.8454 8.53445 11.3143 8.06561C11.7831 7.59677 12.419 7.33337 13.082 7.33337H14.582C14.6262 7.33337 14.6686 7.31581 14.6999 7.28456C14.7311 7.2533 14.7487 7.21091 14.7487 7.16671V5.50004C14.7487 5.05801 14.5731 4.63409 14.2605 4.32153C13.948 4.00897 13.5241 3.83337 13.082 3.83337H1.7487C1.30667 3.83337 0.882747 4.00897 0.570187 4.32153C0.257626 4.63409 0.0820313 5.05801 0.0820312 5.50004V14.1667C0.0820313 14.6087 0.257626 15.0327 0.570187 15.3452C0.882747 15.6578 1.30667 15.8334 1.7487 15.8334H13.082C13.5241 15.8334 13.948 15.6578 14.2605 15.3452C14.5731 15.0327 14.7487 14.6087 14.7487 14.1667V12.5C14.7487 12.4558 14.7311 12.4134 14.6999 12.3822C14.6686 12.3509 14.6262 12.3334 14.582 12.3334H13.082Z" fill="white"/>
<path d="M15.082 8.33337H13.082C12.6842 8.33337 12.3027 8.49141 12.0214 8.77271C11.7401 9.05402 11.582 9.43555 11.582 9.83337C11.582 10.2312 11.7401 10.6127 12.0214 10.894C12.3027 11.1753 12.6842 11.3334 13.082 11.3334H15.082C15.3171 11.2928 15.53 11.17 15.6827 10.9867C15.8354 10.8035 15.9179 10.5719 15.9154 10.3334V9.33337C15.9179 9.09487 15.8354 8.86326 15.6827 8.68003C15.53 8.49679 15.3171 8.37391 15.082 8.33337V8.33337Z" fill="white"/>
<path d="M13.2076 0.784029C13.1815 0.679156 13.1348 0.580531 13.0702 0.493915C13.0056 0.407299 12.9243 0.334428 12.8312 0.279561C12.7381 0.224694 12.635 0.18893 12.528 0.174359C12.4209 0.159788 12.312 0.166701 12.2076 0.194695L3.62627 2.5047C3.58747 2.51539 3.55385 2.53977 3.53163 2.57332C3.5094 2.60688 3.50007 2.64734 3.50535 2.68724C3.51063 2.72714 3.53017 2.76378 3.56036 2.79039C3.59055 2.817 3.62935 2.83179 3.6696 2.83203L13.5096 2.8467C13.535 2.84688 13.5602 2.84123 13.583 2.83017C13.6059 2.81911 13.626 2.80294 13.6416 2.7829C13.6573 2.76287 13.6681 2.73951 13.6733 2.71462C13.6785 2.68973 13.6779 2.66399 13.6716 2.63936L13.2076 0.784029Z" fill="white"/>
</svg>
