<svg width="32" height="32" viewBox="0 0 32 32" fill="none" xmlns="http://www.w3.org/2000/svg">
<path d="M3.20063 3.2C1.79312 3.2 0.640625 4.3525 0.640625 5.76V26.24C0.640625 27.6475 1.79312 28.8 3.20063 28.8H3.84063V29.44H7.04063V28.8H24.9606V29.44H28.1606V28.8H28.8006C30.2081 28.8 31.3606 27.6475 31.3606 26.24V5.76C31.3606 4.3525 30.2081 3.2 28.8006 3.2H3.20063ZM3.20063 4.48H28.8006C29.5156 4.48 30.0806 5.045 30.0806 5.76V26.24C30.0806 26.955 29.5156 27.52 28.8006 27.52H3.20063C2.48562 27.52 1.92063 26.955 1.92063 26.24V5.76C1.92063 5.045 2.48562 4.48 3.20063 4.48ZM4.36063 6.4C4.05563 6.4575 3.83563 6.7275 3.84063 7.04V14.52C3.80313 14.6425 3.80313 14.7775 3.84063 14.9V17.16C3.84063 17.18 3.84063 17.2 3.84063 17.22C3.83563 17.2675 3.83563 17.3125 3.84063 17.36C3.84063 17.38 3.84063 17.4 3.84063 17.42V24.96C3.84063 25.3125 4.12813 25.6 4.48063 25.6H27.5206C27.8731 25.6 28.1606 25.3125 28.1606 24.96V7.04C28.1606 6.6875 27.8731 6.4 27.5206 6.4H4.48063C4.46063 6.4 4.44063 6.4 4.42063 6.4C4.40063 6.4 4.38063 6.4 4.36063 6.4ZM5.12063 7.68H26.8806V24.32H5.12063V17.56L6.22063 16.46C6.34562 16.34 6.41563 16.1725 6.41563 16C6.41563 15.8275 6.34562 15.66 6.22063 15.54L5.12063 14.44V7.68ZM15.9406 8.94C15.9131 8.945 15.8856 8.9525 15.8606 8.96C15.8406 8.965 15.8206 8.9725 15.8006 8.98C14.0331 9.03 12.4331 9.735 11.2206 10.86C11.0556 10.925 10.9256 11.055 10.8606 11.22C9.76063 12.405 9.05813 13.96 8.98063 15.68C8.86813 15.8775 8.86813 16.1225 8.98063 16.32C9.05813 18.015 9.72813 19.5625 10.8006 20.74C10.8581 20.965 11.0356 21.1425 11.2606 21.2C12.4706 22.3025 14.0706 22.975 15.8206 23.02C15.8406 23.0275 15.8606 23.035 15.8806 23.04C15.9206 23.04 15.9606 23.04 16.0006 23.04C16.0481 23.04 16.0931 23.04 16.1406 23.04C16.1606 23.035 16.1806 23.0275 16.2006 23.02C17.9431 22.97 19.5356 22.2975 20.7406 21.2C20.9706 21.1375 21.1481 20.9525 21.2006 20.72C22.2981 19.5125 22.9756 17.925 23.0206 16.18C23.0281 16.1675 23.0356 16.1525 23.0406 16.14C23.0406 16.1325 23.0406 16.1275 23.0406 16.12C23.0456 16.08 23.0456 16.04 23.0406 16C23.0406 15.9725 23.0406 15.9475 23.0406 15.92C23.0381 15.88 23.0306 15.84 23.0206 15.8C22.9706 14.0075 22.2556 12.3775 21.1006 11.16C21.0931 11.1525 21.0881 11.1475 21.0806 11.14C21.0706 11.13 21.0706 11.11 21.0606 11.1C21.0081 11.0275 20.9381 10.965 20.8606 10.92C19.6506 9.7625 18.0281 9.04 16.2406 8.98C16.1456 8.9425 16.0431 8.93 15.9406 8.94ZM15.3606 10.26C15.3656 10.61 15.6506 10.89 16.0006 10.89C16.3506 10.89 16.6356 10.61 16.6406 10.26C17.7606 10.38 18.7681 10.835 19.6006 11.5C19.4106 11.655 19.3231 11.9025 19.3781 12.1425C19.4331 12.38 19.6206 12.5675 19.8581 12.6225C20.0981 12.6775 20.3456 12.59 20.5006 12.4C21.1656 13.2325 21.6206 14.24 21.7406 15.36C21.7281 15.36 21.7131 15.36 21.7006 15.36C21.6806 15.36 21.6606 15.36 21.6406 15.36C21.3006 15.405 21.0556 15.7075 21.0831 16.0475C21.1106 16.3875 21.3981 16.65 21.7406 16.64C21.6206 17.76 21.1656 18.7675 20.5006 19.6C20.3681 19.47 20.1856 19.405 20.0006 19.42C19.9806 19.42 19.9606 19.42 19.9406 19.42C19.7081 19.4625 19.5156 19.63 19.4456 19.8575C19.3731 20.085 19.4331 20.3325 19.6006 20.5C18.7681 21.165 17.7606 21.62 16.6406 21.74C16.6406 21.56 16.5656 21.3875 16.4331 21.265C16.2981 21.1425 16.1206 21.0825 15.9406 21.1C15.9131 21.105 15.8856 21.1125 15.8606 21.12C15.5706 21.185 15.3631 21.4425 15.3606 21.74C14.2406 21.62 13.2331 21.165 12.4006 20.5C12.5781 20.3125 12.6256 20.035 12.5206 19.8C12.4156 19.5625 12.1781 19.415 11.9206 19.42C11.9006 19.42 11.8806 19.42 11.8606 19.42C11.7256 19.44 11.5981 19.5025 11.5006 19.6C10.8356 18.7675 10.3806 17.76 10.2606 16.64C10.6106 16.635 10.8906 16.35 10.8906 16C10.8906 15.65 10.6106 15.365 10.2606 15.36C10.3806 14.24 10.8356 13.2325 11.5006 12.4C11.6556 12.59 11.9031 12.6775 12.1431 12.6225C12.3806 12.5675 12.5681 12.38 12.6231 12.1425C12.6781 11.9025 12.5906 11.655 12.4006 11.5C13.2331 10.835 14.2406 10.38 15.3606 10.26ZM16.0006 12.8C14.2406 12.8 12.8006 14.24 12.8006 16C12.8006 17.76 14.2406 19.2 16.0006 19.2C17.7606 19.2 19.2006 17.76 19.2006 16C19.2006 14.24 17.7606 12.8 16.0006 12.8ZM16.0006 14.08C17.0681 14.08 17.9206 14.9325 17.9206 16C17.9206 17.0675 17.0681 17.92 16.0006 17.92C14.9331 17.92 14.0806 17.0675 14.0806 16C14.0806 14.9325 14.9331 14.08 16.0006 14.08Z" fill="black"/>
</svg>
