<?xml version="1.0" encoding="UTF-8"?>
<svg width="752pt" height="752pt" version="1.1" viewBox="0 0 752 752" xmlns="http://www.w3.org/2000/svg">
 <g>
  <path d="m602.85 238.19c0-10.418-8.5234-18.469-18.469-18.469h-102.77c-10.418 0-18.469 8.5234-18.469 18.469 0 10.418 8.5234 18.469 18.469 18.469h55.41l-126.93 126.92-28.887-37.414c-3.3164-4.7344-8.9961-7.1055-14.68-7.5781-5.6836-0.47266-11.367 1.8945-15.156 5.6836l-131.18 131.18c-7.5781 7.5781-7.5781 20.363 0 27.941 3.7891 3.7891 8.9961 5.6836 14.207 5.6836 5.2109 0 10.418-1.8945 14.207-5.6836l115.55-115.55 28.887 37.414c3.3164 4.7344 8.9961 7.1055 14.68 7.5781 5.6836 0.47266 11.367-1.8945 15.156-5.6836l143.5-143.5 0.47266 57.305c0 4.7344 1.8945 9.4727 5.6836 13.262 3.3164 3.3164 8.0508 5.2109 13.262 5.2109 4.7344 0 9.4727-1.8945 13.262-5.6836 3.3164-3.3164 5.6836-8.0508 5.2109-13.262z"/>
  <path d="m589.11 587.69h-425.28c-10.891 0-19.891-8.9961-19.891-19.891v-382.65c0-10.891 8.9961-19.891 19.891-19.891 10.891 0 19.891 8.9961 19.891 19.891v363.24h405.39c10.891 0 19.891 8.9961 19.891 19.891 0 10.891-9 19.414-19.891 19.414z"/>
 </g>
</svg>
