<svg width="32" height="32" viewBox="0 0 32 32" fill="none" xmlns="http://www.w3.org/2000/svg">
<g clip-path="url(#clip0_4715_25029)">
<path d="M15.8794 0C15.6619 0.04 15.4794 0.1925 15.3994 0.4L8.99941 15.76C8.91941 15.9575 8.94441 16.1825 9.06441 16.36C9.18441 16.5375 9.38441 16.6425 9.59941 16.64H14.4794L9.69941 31L9.63941 31.16C9.53441 31.465 9.67191 31.8 9.96191 31.9425C10.2519 32.085 10.6019 31.99 10.7794 31.72L22.9394 13.16C23.0744 12.9625 23.0869 12.705 22.9744 12.495C22.8594 12.285 22.6394 12.155 22.3994 12.16H17.6194L22.6594 0.9C22.7469 0.7025 22.7294 0.475 22.6119 0.2925C22.4944 0.1125 22.2944 0.0025 22.0794 0H15.9994C15.9794 0 15.9594 0 15.9394 0C15.9194 0 15.8994 0 15.8794 0ZM16.4394 1.28H21.0994L16.0594 12.54C15.9719 12.7375 15.9894 12.965 16.1069 13.1475C16.2244 13.3275 16.4244 13.4375 16.6394 13.44H21.1994L12.3994 26.88L15.9594 16.2C16.0219 16.0075 15.9919 15.795 15.8719 15.6275C15.7544 15.4625 15.5644 15.3625 15.3594 15.36H10.5594L16.4394 1.28Z" fill="black"/>
</g>
<defs>
<clipPath id="clip0_4715_25029">
<rect width="32" height="32" fill="white"/>
</clipPath>
</defs>
</svg>
