<svg width="726" height="268" viewBox="0 0 726 268" fill="none" xmlns="http://www.w3.org/2000/svg">
<path d="M0.500001 220H125V260H191.5V220H221V166H191.5V3.99999H103.5L0.500001 166V220ZM126.5 166H69V164L124.5 76H126.5V166ZM361.656 267C431.281 267.125 474.531 217.25 474.656 132.5C474.781 48.25 431.281 0.49999 361.656 0.49999C291.906 0.49999 248.906 48 248.656 132.5C248.406 216.875 291.906 266.875 361.656 267ZM361.656 210.5C337.656 210.5 320.406 186.375 320.656 132.5C320.906 79.875 337.656 56.5 361.656 56.5C385.656 56.5 402.531 79.875 402.656 132.5C402.781 186.375 385.656 210.5 361.656 210.5ZM504.781 220H629.281V260H695.781V220H725.281V166H695.781V3.99999H607.781L504.781 166V220ZM630.781 166H573.281V164L628.781 76H630.781V166Z" fill="white" fill-opacity="0.01"/>
<path d="M0.500001 220H9.53674e-07V220.5H0.500001V220ZM125 220H125.5V219.5H125V220ZM125 260H124.5V260.5H125V260ZM191.5 260V260.5H192V260H191.5ZM191.5 220V219.5H191V220H191.5ZM221 220V220.5H221.5V220H221ZM221 166H221.5V165.5H221V166ZM191.5 166H191V166.5H191.5V166ZM191.5 3.99999H192V3.49999H191.5V3.99999ZM103.5 3.99999V3.49999H103.225L103.078 3.73172L103.5 3.99999ZM0.500001 166L0.078063 165.732L9.53674e-07 165.855V166H0.500001ZM126.5 166V166.5H127V166H126.5ZM69 166H68.5V166.5H69V166ZM69 164L68.5771 163.733L68.5 163.855V164H69ZM124.5 76V75.5H124.224L124.077 75.7333L124.5 76ZM126.5 76H127V75.5H126.5V76ZM0.500001 220.5H125V219.5H0.500001V220.5ZM124.5 220V260H125.5V220H124.5ZM125 260.5H191.5V259.5H125V260.5ZM192 260V220H191V260H192ZM191.5 220.5H221V219.5H191.5V220.5ZM221.5 220V166H220.5V220H221.5ZM221 165.5H191.5V166.5H221V165.5ZM192 166V3.99999H191V166H192ZM191.5 3.49999H103.5V4.49999H191.5V3.49999ZM103.078 3.73172L0.078063 165.732L0.921939 166.268L103.922 4.26826L103.078 3.73172ZM9.53674e-07 166V220H1V166H9.53674e-07ZM126.5 165.5H69V166.5H126.5V165.5ZM69.5 166V164H68.5V166H69.5ZM69.4229 164.267L124.923 76.2667L124.077 75.7333L68.5771 163.733L69.4229 164.267ZM124.5 76.5H126.5V75.5H124.5V76.5ZM126 76V166H127V76H126ZM361.656 267L361.657 266.5L361.656 267ZM474.656 132.5L474.156 132.499V132.499L474.656 132.5ZM248.656 132.5L249.156 132.501L248.656 132.5ZM320.656 132.5L320.156 132.498V132.498L320.656 132.5ZM402.656 132.5L403.156 132.499V132.499L402.656 132.5ZM361.655 267.5C396.596 267.563 424.962 255.074 444.6 231.901C464.229 208.739 475.094 174.955 475.156 132.501L474.156 132.499C474.094 174.795 463.271 208.324 443.837 231.255C424.413 254.176 396.341 266.562 361.657 266.5L361.655 267.5ZM475.156 132.501C475.219 90.2943 464.354 57.1638 444.69 34.5779C425.018 11.9833 396.59 -7.62939e-06 361.656 -7.62939e-06V0.999992C396.348 0.999992 424.482 12.8917 443.935 35.2346C463.396 57.5862 474.219 90.4557 474.156 132.499L475.156 132.501ZM361.656 -7.62939e-06C326.661 -7.62939e-06 298.326 11.9204 278.716 34.4845C259.114 57.0392 248.281 90.1693 248.156 132.499L249.156 132.501C249.281 90.3307 260.073 57.4608 279.471 35.1405C298.861 12.8296 326.901 0.999992 361.656 0.999992V-7.62939e-06ZM248.156 132.499C248.031 174.767 258.864 208.489 278.525 231.667C298.194 254.855 326.653 267.437 361.655 267.5L361.657 266.5C326.91 266.438 298.744 253.957 279.288 231.02C259.823 208.074 249.031 174.608 249.156 132.501L248.156 132.499ZM361.656 210C349.859 210 339.701 204.086 332.497 191.455C325.277 178.798 321.031 159.399 321.156 132.502L320.156 132.498C320.031 159.476 324.285 179.077 331.628 191.951C338.987 204.852 349.454 211 361.656 211V210ZM321.156 132.502C321.281 106.23 325.526 87.3305 332.682 75.0169C339.821 62.7322 349.853 57 361.656 57V56C349.459 56 339.116 61.9553 331.818 74.5144C324.536 87.0445 320.281 106.145 320.156 132.498L321.156 132.502ZM361.656 57C373.46 57 383.523 62.7326 390.677 75.0173C397.848 87.3305 402.094 106.229 402.156 132.501L403.156 132.499C403.094 106.146 398.839 87.0445 391.541 74.514C384.227 61.9549 373.853 56 361.656 56V57ZM402.156 132.501C402.219 159.398 397.973 178.798 390.769 191.456C383.58 204.086 373.453 210 361.656 210V211C373.859 211 384.295 204.851 391.638 191.95C398.965 179.077 403.219 159.477 403.156 132.499L402.156 132.501ZM504.781 220H504.281V220.5H504.781V220ZM629.281 220H629.781V219.5H629.281V220ZM629.281 260H628.781V260.5H629.281V260ZM695.781 260V260.5H696.281V260H695.781ZM695.781 220V219.5H695.281V220H695.781ZM725.281 220V220.5H725.781V220H725.281ZM725.281 166H725.781V165.5H725.281V166ZM695.781 166H695.281V166.5H695.781V166ZM695.781 3.99999H696.281V3.49999H695.781V3.99999ZM607.781 3.99999V3.49999H607.507L607.359 3.73172L607.781 3.99999ZM504.781 166L504.359 165.732L504.281 165.855V166H504.781ZM630.781 166V166.5H631.281V166H630.781ZM573.281 166H572.781V166.5H573.281V166ZM573.281 164L572.858 163.733L572.781 163.855V164H573.281ZM628.781 76V75.5H628.505L628.358 75.7333L628.781 76ZM630.781 76H631.281V75.5H630.781V76ZM504.781 220.5H629.281V219.5H504.781V220.5ZM628.781 220V260H629.781V220H628.781ZM629.281 260.5H695.781V259.5H629.281V260.5ZM696.281 260V220H695.281V260H696.281ZM695.781 220.5H725.281V219.5H695.781V220.5ZM725.781 220V166H724.781V220H725.781ZM725.281 165.5H695.781V166.5H725.281V165.5ZM696.281 166V3.99999H695.281V166H696.281ZM695.781 3.49999H607.781V4.49999H695.781V3.49999ZM607.359 3.73172L504.359 165.732L505.203 166.268L608.203 4.26826L607.359 3.73172ZM504.281 166V220H505.281V166H504.281ZM630.781 165.5H573.281V166.5H630.781V165.5ZM573.781 166V164H572.781V166H573.781ZM573.704 164.267L629.204 76.2667L628.358 75.7333L572.858 163.733L573.704 164.267ZM628.781 76.5H630.781V75.5H628.781V76.5ZM630.281 76V166H631.281V76H630.281Z" fill="#436972"/>
</svg>
