<svg width="25" height="24" viewBox="0 0 25 24" fill="none" xmlns="http://www.w3.org/2000/svg">
<circle cx="12.5" cy="12" r="12" fill="#06D8B7"/>
<g filter="url(#filter0_i_4302_25704)">
<path d="M5.20156 17.1C5.49489 17.0022 5.61317 16.72 5.70816 16.6884L6.34138 17.6066L6.27805 17.8282C6.27805 17.9232 6.14349 17.9865 6.21473 18.1132C6.4427 18.5184 7.00629 18.5142 7.25959 18.4615L7.98782 18.6198C9.79257 19.0947 10.898 19.1582 12.6738 18.7147C14.5115 18.2559 15.9562 17.1105 16.8849 16.3084C17.2015 16.0868 17.6072 15.4593 18.1197 14.757C18.9746 13.5855 19.8401 9.53269 20.3361 7.15802C20.4311 5.44826 19.1646 5.16329 19.1646 5.16329C18.4047 4.78335 14.8902 5.63822 14.8902 5.63822C10.9324 5.73321 9.53927 6.77806 9.53927 6.77806C7.29125 8.45616 6.658 10.9258 6.658 10.9258C6.43637 11.6963 5.98043 13.3828 5.92977 13.9654C5.87911 14.548 5.12768 15.8335 4.75829 16.4034C4.66329 16.7833 5.01156 17.1633 5.20156 17.1Z" fill="white" fill-opacity="0.05"/>
<path d="M5.58838 16.8009C5.50436 16.9004 5.38851 17.0377 5.20156 17.1C5.01156 17.1633 4.66329 16.7833 4.75829 16.4034C5.12768 15.8335 5.87911 14.548 5.92977 13.9654C5.98043 13.3828 6.43637 11.6963 6.658 10.9258C6.658 10.9258 7.29125 8.45616 9.53927 6.77806C9.53927 6.77806 10.9324 5.73321 14.8902 5.63822C14.8902 5.63822 18.4047 4.78335 19.1646 5.16329C19.1646 5.16329 20.4311 5.44826 20.3361 7.15802C19.8401 9.53269 18.9746 13.5855 18.1197 14.757C18.012 14.9046 17.909 15.0489 17.8105 15.1869C17.4406 15.7052 17.135 16.1334 16.8849 16.3084C15.9562 17.1105 14.5115 18.2559 12.6738 18.7147C10.898 19.1582 9.79257 19.0947 7.98782 18.6198L7.25959 18.4615C7.00629 18.5142 6.4427 18.5184 6.21473 18.1132C6.171 18.0354 6.20482 17.9815 6.23746 17.9295C6.25799 17.8968 6.27805 17.8649 6.27805 17.8282L6.33745 17.6203C6.36581 17.6288 6.39941 17.6167 6.45818 17.5888C6.60319 17.52 6.75961 17.54 7.08441 17.6691C7.44741 17.8133 7.48239 17.7917 7.55237 17.3804C7.57605 17.2412 7.69423 17.1159 7.82697 17.0894C8.01214 17.0523 8.1478 17.1138 8.49153 17.3904C8.54434 17.4329 8.58861 17.4485 8.60483 17.4303C8.6195 17.4139 8.6845 17.2446 8.74928 17.0541C8.81406 16.8636 8.8817 16.69 8.89962 16.6683C8.95511 16.6012 9.06287 16.6234 9.49389 16.791C9.80162 16.9106 9.92374 16.9449 9.96074 16.9219C9.98833 16.9048 10.0307 16.8071 10.0549 16.7047C10.0791 16.6025 10.1125 16.4621 10.1291 16.3928C10.1807 16.1765 10.4665 15.9677 10.7108 15.9677C10.7453 15.9677 10.8532 16.0102 10.9506 16.0621C11.2572 16.2258 11.3402 16.192 11.3831 15.886C11.4196 15.6262 11.5288 15.4314 11.7198 15.2858C11.8941 15.1529 12.0747 15.1257 12.3405 15.1924C12.4519 15.2205 12.5721 15.2434 12.6075 15.2434C12.7219 15.2434 12.7863 15.1417 12.8088 14.9256C12.8455 14.5739 13.0893 14.185 13.3213 14.1084C13.3908 14.0855 13.5102 14.0801 13.6462 14.0938C13.7771 14.1069 13.8688 14.1033 13.8804 14.0845C13.8909 14.0675 13.9199 13.8979 13.9449 13.7077C13.9968 13.3127 14.0391 13.1925 14.1842 13.0272C14.3261 12.8656 14.4393 12.8146 14.7279 12.7824C15.1679 12.7331 15.2446 12.6472 15.2873 12.1553C15.3182 11.7998 15.3617 11.6773 15.519 11.5032C15.6626 11.3443 15.8605 11.2601 16.1934 11.2163C16.5025 11.1755 16.6577 11.1097 16.7176 10.9938C16.7415 10.9475 16.7908 10.79 16.827 10.6438C16.8982 10.3566 17.0678 9.96974 17.1966 9.80089C17.318 9.64163 17.4487 9.57522 17.6409 9.57509C18.0593 9.57478 18.2689 9.29466 18.3514 8.62557C18.376 8.42623 18.4181 8.22057 18.445 8.16851C18.4719 8.11649 18.6004 8.00032 18.7304 7.91041C19.0142 7.71425 19.1013 7.60085 19.1203 7.40328C19.1387 7.21172 19.066 7.06623 18.9218 7.00595C18.8619 6.98093 18.8308 6.96766 18.799 6.96616C18.7632 6.96446 18.7267 6.97778 18.6473 7.00614C18.2982 7.13069 18.0792 7.46333 18.0108 7.9727C17.9835 8.17588 17.8413 8.3858 17.6578 8.49362C17.5273 8.57034 17.4701 8.5835 17.2538 8.58662C17.1153 8.5886 16.9835 8.59216 16.9609 8.59449C16.8803 8.60287 16.8287 8.80929 16.8282 9.12521C16.8275 9.6023 16.7524 9.69029 16.3117 9.73047C15.8644 9.77122 15.7581 9.89728 15.7581 10.3869C15.758 10.934 15.6014 11.0853 15.0337 11.0868C14.7721 11.0875 14.6781 11.1222 14.5803 11.254C14.5223 11.3321 14.5153 11.3803 14.522 11.6589C14.535 12.2045 14.4729 12.2633 13.8804 12.2658L13.5054 12.2674C13.4932 12.2674 13.4815 12.2725 13.4732 12.2815L13.3645 12.3979C13.2693 12.5 13.2252 12.5889 13.1616 12.8072C13.0389 13.2284 12.9408 13.4043 12.7743 13.5019C12.6481 13.5758 12.5906 13.5862 12.2083 13.6039C11.7954 13.6232 11.7806 13.6263 11.7091 13.7094C11.6686 13.7565 11.6268 13.8481 11.6161 13.913C11.5346 14.4098 11.4771 14.5253 11.2557 14.6372C11.1467 14.6922 11.0618 14.708 10.8749 14.708C10.4709 14.708 10.4171 14.7472 10.3415 15.0965C10.2729 15.4135 10.1067 15.6203 9.86892 15.6843C9.73955 15.7191 9.64816 15.7082 9.45128 15.6343C9.38597 15.6098 9.27014 15.5898 9.19387 15.5898C9.00367 15.5898 8.88982 15.693 8.74815 15.9939C8.68561 16.1267 8.60404 16.2686 8.56688 16.3092C8.33697 16.5604 8.03972 16.517 7.67147 16.1785C7.56821 16.0836 7.45323 15.9962 7.41595 15.9844C7.30674 15.9497 7.15712 16.061 7.01403 16.2834C6.7649 16.6706 6.67244 16.786 6.57359 16.8334C6.42949 16.9024 6.31511 16.8926 6.02725 16.7864C5.93927 16.754 5.85337 16.7252 5.79521 16.7082C5.76369 16.699 5.74297 16.7264 5.75792 16.7557C5.76115 16.762 5.76438 16.7683 5.76762 16.7746L5.70816 16.6884C5.67371 16.6998 5.6362 16.7443 5.58838 16.8009Z" fill="white"/>
</g>
<defs>
<filter id="filter0_i_4302_25704" x="4.74219" y="5.06595" width="15.5977" height="14.4483" filterUnits="userSpaceOnUse" color-interpolation-filters="sRGB">
<feFlood flood-opacity="0" result="BackgroundImageFix"/>
<feBlend mode="normal" in="SourceGraphic" in2="BackgroundImageFix" result="shape"/>
<feColorMatrix in="SourceAlpha" type="matrix" values="0 0 0 0 0 0 0 0 0 0 0 0 0 0 0 0 0 0 127 0" result="hardAlpha"/>
<feOffset dy="0.5"/>
<feGaussianBlur stdDeviation="0.25"/>
<feComposite in2="hardAlpha" operator="arithmetic" k2="-1" k3="1"/>
<feColorMatrix type="matrix" values="0 0 0 0 1 0 0 0 0 1 0 0 0 0 1 0 0 0 0.1 0"/>
<feBlend mode="normal" in2="shape" result="effect1_innerShadow_4302_25704"/>
</filter>
</defs>
</svg>
