<svg width="48" height="43" viewBox="0 0 48 43" fill="none" xmlns="http://www.w3.org/2000/svg">
<g filter="url(#filter0_b_3405_13193)">
<rect width="47.6345" height="42.4615" transform="translate(0.105469 0.384613)" fill="white" fill-opacity="0.05"/>
<g filter="url(#filter1_b_3405_13193)">
<path d="M1.50826 37.0188C2.404 36.7212 2.76519 35.8621 3.05525 35.7657L4.9889 38.561L4.79553 39.2357C4.79553 39.5249 4.38461 39.7176 4.60216 40.1032C5.2983 41.3369 7.01933 41.3241 7.79282 41.1634L10.0166 41.6454C15.5278 43.0912 18.9034 43.2845 24.3263 41.9345C29.9379 40.5376 34.3494 37.0509 37.1856 34.6091C38.1525 33.9344 39.3914 32.0241 40.9564 29.8862C43.5669 26.3199 46.2097 13.9823 47.7244 6.75333C48.0145 1.54844 44.147 0.680932 44.147 0.680932C41.8266 -0.47568 31.0943 2.12673 31.0943 2.12673C19.0085 2.4159 14.7543 5.59666 14.7543 5.59666C7.88951 10.7052 5.95577 18.2233 5.95577 18.2233C5.27897 20.5688 3.88668 25.703 3.73198 27.4765C3.57728 29.25 1.28263 33.1633 0.15465 34.8983C-0.135456 36.0549 0.928062 37.2115 1.50826 37.0188Z" fill="white" fill-opacity="0.05"/>
</g>
<path fill-rule="evenodd" clip-rule="evenodd" d="M2.68949 36.1084C2.4329 36.4114 2.07914 36.8291 1.50826 37.0188C0.928062 37.2115 -0.135456 36.0549 0.15465 34.8983C1.28263 33.1633 3.57728 29.25 3.73198 27.4765C3.88668 25.703 5.27897 20.5688 5.95577 18.2233C5.95577 18.2233 7.88951 10.7052 14.7543 5.59666C14.7543 5.59666 19.0085 2.4159 31.0943 2.12673C31.0943 2.12673 41.8266 -0.47568 44.147 0.680932C44.147 0.680932 48.0145 1.54844 47.7244 6.75333C46.2097 13.9823 43.5669 26.3199 40.9564 29.8862C40.6274 30.3356 40.3128 30.775 40.0121 31.1949C38.8825 32.7727 37.9492 34.0763 37.1856 34.6091C34.3494 37.0509 29.9379 40.5376 24.3263 41.9345C18.9034 43.2845 15.5278 43.0912 10.0166 41.6454L7.79282 41.1634C7.01933 41.3241 5.2983 41.3369 4.60216 40.1032C4.46861 39.8665 4.57191 39.7025 4.67158 39.5442C4.73427 39.4446 4.79553 39.3473 4.79553 39.2357L4.97691 38.6028C5.06354 38.6288 5.16615 38.5919 5.34568 38.5069C5.78852 38.2974 6.26617 38.3585 7.258 38.7512C8.36649 39.1902 8.47332 39.1245 8.687 37.8725C8.75932 37.4487 9.12022 37.0673 9.52555 36.9865C10.091 36.8738 10.5053 37.0608 11.5549 37.9029C11.7162 38.0323 11.8514 38.0799 11.9009 38.0245C11.9457 37.9745 12.1442 37.4591 12.342 36.8791C12.5398 36.2992 12.7464 35.7707 12.8011 35.7048C12.9705 35.5003 13.2996 35.568 14.6158 36.0782C15.5555 36.4424 15.9284 36.5466 16.0414 36.4766C16.1257 36.4245 16.255 36.1271 16.3291 35.8156C16.403 35.5042 16.5049 35.0769 16.5554 34.866C16.7131 34.2076 17.5857 33.5718 18.3318 33.5718C18.4373 33.5718 18.7667 33.7012 19.0641 33.8594C20.0005 34.3575 20.2538 34.2547 20.385 33.3233C20.4963 32.5323 20.8299 31.9394 21.4132 31.4959C21.9452 31.0913 22.4969 31.0087 23.3084 31.2118C23.6487 31.2972 24.0157 31.3669 24.1238 31.3669C24.4733 31.3669 24.6699 31.0575 24.7386 30.3995C24.8505 29.3288 25.5952 28.1449 26.3035 27.9119C26.5157 27.842 26.8804 27.8256 27.2958 27.8672C27.6955 27.9072 27.9754 27.8961 28.0109 27.839C28.0429 27.7873 28.1316 27.2711 28.2079 26.6919C28.3664 25.4894 28.4955 25.1235 28.9385 24.6204C29.3718 24.1285 29.7174 23.9733 30.5989 23.875C31.9425 23.7251 32.1766 23.4635 32.3071 21.9662C32.4014 20.8838 32.5343 20.511 33.0147 19.9809C33.453 19.4972 34.0574 19.2409 35.074 19.1074C36.0178 18.9835 36.4918 18.783 36.6747 18.4302C36.7479 18.2892 36.8983 17.8097 37.0089 17.3647C37.2262 16.4904 37.744 15.3128 38.1374 14.7988C38.5083 14.314 38.9073 14.1118 39.4941 14.1114C40.7719 14.1104 41.4119 13.2577 41.6639 11.2208C41.7389 10.614 41.8676 9.98792 41.9497 9.82945C42.0319 9.67108 42.4242 9.31743 42.8213 9.04374C43.6878 8.44659 43.9539 8.10138 44.0119 7.49991C44.0682 6.91676 43.8461 6.47386 43.4057 6.29038C43.2228 6.21421 43.1277 6.17381 43.0309 6.16923C42.9215 6.16406 42.81 6.2046 42.5673 6.29095C41.5015 6.6701 40.8326 7.68273 40.6238 9.23336C40.5404 9.85189 40.1061 10.4909 39.5459 10.8192C39.1474 11.0527 38.9725 11.0928 38.3123 11.1023C37.8892 11.1083 37.4867 11.1191 37.4179 11.1262C37.1717 11.1517 37.0141 11.7801 37.0126 12.7419C37.0104 14.1942 36.7812 14.4621 35.4353 14.5844C34.0695 14.7084 33.7449 15.0922 33.7447 16.5826C33.7444 18.2482 33.2663 18.7087 31.5327 18.7134C30.7338 18.7156 30.4469 18.821 30.148 19.2223C29.9709 19.4601 29.9498 19.6068 29.9701 20.4549C30.01 22.1159 29.8201 22.2949 28.0109 22.3025L26.8072 22.3075L26.4355 22.7045C26.1446 23.0153 26.01 23.2859 25.8158 23.9508C25.4411 25.233 25.1417 25.7682 24.633 26.0654C24.2478 26.2904 24.0721 26.322 22.9049 26.3761C21.6438 26.4346 21.5989 26.4441 21.3805 26.697C21.2568 26.8405 21.129 27.1194 21.0965 27.3169C20.8476 28.8293 20.672 29.1809 19.9959 29.5214C19.6631 29.689 19.4038 29.7371 18.833 29.7371C17.5994 29.7371 17.4351 29.8564 17.2043 30.9197C16.9946 31.8849 16.4871 32.5143 15.761 32.7092C15.366 32.8152 15.0869 32.7819 14.4857 32.557C14.2863 32.4824 13.9326 32.4214 13.6997 32.4214C13.1188 32.4214 12.7712 32.7356 12.3385 33.6517C12.1476 34.0559 11.8985 34.4878 11.785 34.6114C11.0829 35.3763 10.1752 35.2442 9.0507 34.2136C8.73537 33.9247 8.38428 33.6587 8.27042 33.6227C7.93692 33.5171 7.48005 33.856 7.04308 34.533C6.28232 35.7116 5.99998 36.063 5.69812 36.2072C5.25808 36.4174 4.90881 36.3874 4.02977 36.0643C3.59944 35.9061 3.18536 35.7767 3.10968 35.7767C3.15249 35.8633 3.19497 35.9472 3.23736 36.029L3.05525 35.7657C2.95006 35.8007 2.83551 35.936 2.68949 36.1084Z" fill="#3C464E"/>
</g>
<defs>
<filter id="filter0_b_3405_13193" x="-153.741" y="-153.462" width="355.327" height="350.154" filterUnits="userSpaceOnUse" color-interpolation-filters="sRGB">
<feFlood flood-opacity="0" result="BackgroundImageFix"/>
<feGaussianBlur in="BackgroundImage" stdDeviation="76.9231"/>
<feComposite in2="SourceAlpha" operator="in" result="effect1_backgroundBlur_3405_13193"/>
<feBlend mode="normal" in="SourceGraphic" in2="effect1_backgroundBlur_3405_13193" result="shape"/>
</filter>
<filter id="filter1_b_3405_13193" x="-215.435" y="-215.156" width="478.716" height="473.543" filterUnits="userSpaceOnUse" color-interpolation-filters="sRGB">
<feFlood flood-opacity="0" result="BackgroundImageFix"/>
<feGaussianBlur in="BackgroundImage" stdDeviation="107.77"/>
<feComposite in2="SourceAlpha" operator="in" result="effect1_backgroundBlur_3405_13193"/>
<feBlend mode="normal" in="SourceGraphic" in2="effect1_backgroundBlur_3405_13193" result="shape"/>
</filter>
</defs>
</svg>
