<svg width="104" height="36" viewBox="0 0 104 36" fill="none" xmlns="http://www.w3.org/2000/svg">
<path d="M0.83137 15.1538V4.38461H3.45906V5.34307C3.82522 4.95538 4.26317 4.65025 4.77291 4.42768C5.28265 4.19794 5.83188 4.08307 6.4206 4.08307C7.16727 4.08307 7.85291 4.25897 8.47752 4.61076C9.10932 4.96256 9.61188 5.43281 9.98522 6.02153C10.3657 5.43281 10.8683 4.96256 11.4929 4.61076C12.1175 4.25897 12.8032 4.08307 13.5498 4.08307C14.3396 4.08307 15.0539 4.27692 15.6929 4.66461C16.3391 5.04512 16.8524 5.55845 17.2329 6.20461C17.6206 6.84358 17.8144 7.55794 17.8144 8.34768V15.1538H15.1868V9.04768C15.1868 8.63127 15.0827 8.25076 14.8744 7.90615C14.6734 7.55435 14.4006 7.27435 14.056 7.06615C13.7186 6.85076 13.338 6.74307 12.9144 6.74307C12.4909 6.74307 12.1068 6.84717 11.7621 7.05538C11.4247 7.2564 11.1519 7.52922 10.9437 7.87384C10.7355 8.21845 10.6314 8.60974 10.6314 9.04768V15.1538H8.00368V9.04768C8.00368 8.60974 7.90317 8.21845 7.70214 7.87384C7.50111 7.52922 7.22829 7.2564 6.88368 7.05538C6.53906 6.84717 6.15496 6.74307 5.73137 6.74307C5.31496 6.74307 4.93445 6.85076 4.58983 7.06615C4.24522 7.27435 3.96881 7.55435 3.7606 7.90615C3.55958 8.25076 3.45906 8.63127 3.45906 9.04768V15.1538H0.83137ZM25.0386 15.4338C24.0478 15.4338 23.1432 15.179 22.3247 14.6692C21.5135 14.1595 20.8637 13.4774 20.3755 12.6231C19.8945 11.7615 19.654 10.8102 19.654 9.76922C19.654 8.97948 19.794 8.24358 20.074 7.56153C20.354 6.8723 20.7381 6.26922 21.2263 5.7523C21.7217 5.2282 22.296 4.81897 22.9494 4.52461C23.6027 4.23025 24.2991 4.08307 25.0386 4.08307C26.0294 4.08307 26.9304 4.33794 27.7417 4.84769C28.5601 5.35743 29.2099 6.04307 29.6909 6.90461C30.1791 7.76615 30.4232 8.72102 30.4232 9.76922C30.4232 10.5518 30.2832 11.2841 30.0032 11.9661C29.7232 12.6482 29.3355 13.2513 28.8401 13.7754C28.3519 14.2923 27.7811 14.6979 27.1278 14.9923C26.4817 15.2867 25.7852 15.4338 25.0386 15.4338ZM25.0386 12.8061C25.5627 12.8061 26.0329 12.6661 26.4494 12.3861C26.8658 12.1061 27.1924 11.7364 27.4294 11.2769C27.6735 10.8174 27.7955 10.3149 27.7955 9.76922C27.7955 9.20922 27.6699 8.69948 27.4186 8.23999C27.1745 7.77333 26.8406 7.40358 26.417 7.13076C26.0006 6.85076 25.5411 6.71076 25.0386 6.71076C24.5217 6.71076 24.055 6.85076 23.6386 7.13076C23.2222 7.41076 22.8919 7.7841 22.6478 8.25076C22.4037 8.71743 22.2817 9.22358 22.2817 9.76922C22.2817 10.3364 22.4073 10.8497 22.6586 11.3092C22.9099 11.7687 23.2437 12.1349 23.6601 12.4077C24.0837 12.6733 24.5432 12.8061 25.0386 12.8061ZM42.5031 8.34768V15.1538H39.8754V9.03692C39.8754 8.61333 39.7713 8.22922 39.5631 7.88461C39.3549 7.53281 39.0749 7.2564 38.7231 7.05538C38.3785 6.84717 37.9944 6.74307 37.5708 6.74307C37.1472 6.74307 36.7595 6.84717 36.4077 7.05538C36.0631 7.2564 35.7867 7.53281 35.5785 7.88461C35.3774 8.22922 35.2769 8.61333 35.2769 9.03692V15.1538H32.6492L32.6385 4.38461H35.2662L35.2769 5.34307C35.6431 4.95538 36.081 4.65025 36.5908 4.42768C37.1005 4.19794 37.6497 4.08307 38.2385 4.08307C39.021 4.08307 39.7354 4.27692 40.3815 4.66461C41.0277 5.04512 41.541 5.55845 41.9215 6.20461C42.3092 6.84358 42.5031 7.55794 42.5031 8.34768ZM49.7153 15.4338C48.7245 15.4338 47.8199 15.179 47.0014 14.6692C46.1901 14.1595 45.5404 13.4738 45.0522 12.6123C44.5712 11.7508 44.3306 10.7995 44.3306 9.75845C44.3306 8.97589 44.4706 8.24358 44.7506 7.56153C45.0306 6.8723 45.4148 6.26922 45.903 5.7523C46.3983 5.2282 46.9727 4.81897 47.626 4.52461C48.2794 4.23025 48.9758 4.08307 49.7153 4.08307C50.5553 4.08307 51.3235 4.26256 52.0199 4.62153C52.7235 4.97333 53.3194 5.45794 53.8076 6.07538C54.2958 6.69281 54.6512 7.3964 54.8737 8.18615C55.0963 8.97589 55.1465 9.80153 55.0245 10.6631H47.1522C47.2527 11.0651 47.4178 11.4277 47.6476 11.7508C47.8773 12.0667 48.1681 12.3215 48.5199 12.5154C48.8717 12.702 49.2701 12.799 49.7153 12.8061C50.1748 12.8133 50.5912 12.7056 50.9645 12.4831C51.345 12.2533 51.6609 11.9446 51.9122 11.5569L54.5937 12.1815C54.1558 13.1364 53.5024 13.919 52.6337 14.5292C51.765 15.1323 50.7922 15.4338 49.7153 15.4338ZM47.066 8.6923H52.3645C52.2855 8.26153 52.1168 7.87384 51.8583 7.52922C51.6071 7.17743 51.2948 6.89743 50.9214 6.68922C50.5481 6.48102 50.146 6.37692 49.7153 6.37692C49.2845 6.37692 48.886 6.48102 48.5199 6.68922C48.1537 6.89025 47.8414 7.16666 47.583 7.51845C47.3317 7.86307 47.1594 8.25435 47.066 8.6923ZM63.0875 7.0123H60.9982V15.1538H58.3705V7.0123H56.7767V4.38461H58.3705V1.00307H60.9982V4.38461H63.0875V7.0123ZM73.4406 4.38461H76.0682V15.1538H73.4406L73.3221 13.8185C73.0277 14.2995 72.6364 14.6908 72.1482 14.9923C71.6672 15.2867 71.0964 15.4338 70.4359 15.4338C69.639 15.4338 68.8923 15.2831 68.1959 14.9815C67.4995 14.68 66.8857 14.2636 66.3544 13.7323C65.8303 13.201 65.4175 12.5872 65.1159 11.8908C64.8216 11.1944 64.6744 10.4477 64.6744 9.65076C64.6744 8.88256 64.8144 8.16102 65.0944 7.48615C65.3816 6.81127 65.78 6.21897 66.2898 5.70922C66.7995 5.19948 67.3882 4.80102 68.0559 4.51384C68.7236 4.22666 69.4416 4.08307 70.2098 4.08307C70.9206 4.08307 71.5559 4.24102 72.1159 4.55692C72.6831 4.87281 73.1641 5.27486 73.559 5.76307L73.4406 4.38461ZM70.3713 12.9031C70.9313 12.9031 71.4267 12.7631 71.8575 12.4831C72.2882 12.2031 72.6257 11.8261 72.8698 11.3523C73.1139 10.8713 73.2359 10.3436 73.2359 9.76922C73.2359 9.18769 73.1139 8.65999 72.8698 8.18615C72.6257 7.70512 72.2847 7.32461 71.8467 7.04461C71.4159 6.76461 70.9241 6.62461 70.3713 6.62461C69.8185 6.62461 69.3123 6.7682 68.8529 7.05538C68.4006 7.33538 68.038 7.7123 67.7652 8.18615C67.4995 8.65999 67.3667 9.18769 67.3667 9.76922C67.3667 10.3508 67.5031 10.8785 67.7759 11.3523C68.0488 11.8261 68.4113 12.2031 68.8636 12.4831C69.3231 12.7631 69.8257 12.9031 70.3713 12.9031ZM78.7634 15.1538L78.7526 4.38461H81.3803L81.3911 5.34307C81.7573 4.95538 82.1952 4.65025 82.705 4.42768C83.2147 4.19794 83.7639 4.08307 84.3526 4.08307C84.7475 4.08307 85.1424 4.14051 85.5373 4.25538L84.5034 6.90461C84.2306 6.79692 83.9578 6.74307 83.685 6.74307C83.2614 6.74307 82.8737 6.84717 82.5219 7.05538C82.1773 7.2564 81.9008 7.53281 81.6926 7.88461C81.4916 8.22922 81.3911 8.61333 81.3911 9.03692V15.1538H78.7634ZM87.2418 4.38461H89.8695V15.1538H87.2418V4.38461ZM88.5772 2.99538C88.1895 2.99538 87.8629 2.86974 87.5972 2.61845C87.3316 2.35999 87.1988 2.03692 87.1988 1.64922C87.1988 1.26871 87.3316 0.949223 87.5972 0.690762C87.8629 0.4323 88.1859 0.303069 88.5664 0.303069C88.947 0.303069 89.2664 0.4323 89.5249 0.690762C89.7905 0.949223 89.9234 1.26871 89.9234 1.64922C89.9234 2.03692 89.7941 2.35999 89.5357 2.61845C89.2772 2.86974 88.9577 2.99538 88.5772 2.99538ZM100.864 4.38461H103.492V15.1538H100.864L100.746 13.8185C100.451 14.2995 100.06 14.6908 99.5719 14.9923C99.0909 15.2867 98.5201 15.4338 97.8596 15.4338C97.0627 15.4338 96.316 15.2831 95.6196 14.9815C94.9232 14.68 94.3094 14.2636 93.7781 13.7323C93.254 13.201 92.8412 12.5872 92.5396 11.8908C92.2453 11.1944 92.0981 10.4477 92.0981 9.65076C92.0981 8.88256 92.2381 8.16102 92.5181 7.48615C92.8053 6.81127 93.2037 6.21897 93.7135 5.70922C94.2232 5.19948 94.8119 4.80102 95.4796 4.51384C96.1473 4.22666 96.8653 4.08307 97.6335 4.08307C98.3442 4.08307 98.9796 4.24102 99.5396 4.55692C100.107 4.87281 100.588 5.27486 100.983 5.76307L100.864 4.38461ZM97.795 12.9031C98.355 12.9031 98.8504 12.7631 99.2812 12.4831C99.7119 12.2031 100.049 11.8261 100.293 11.3523C100.538 10.8713 100.66 10.3436 100.66 9.76922C100.66 9.18769 100.538 8.65999 100.293 8.18615C100.049 7.70512 99.7083 7.32461 99.2704 7.04461C98.8396 6.76461 98.3478 6.62461 97.795 6.62461C97.2422 6.62461 96.736 6.7682 96.2765 7.05538C95.8242 7.33538 95.4617 7.7123 95.1889 8.18615C94.9232 8.65999 94.7904 9.18769 94.7904 9.76922C94.7904 10.3508 94.9268 10.8785 95.1996 11.3523C95.4724 11.8261 95.835 12.2031 96.2873 12.4831C96.7468 12.7631 97.2494 12.9031 97.795 12.9031Z" fill="#303940"/>
<path d="M1.55737 35.2308H0.892758V26H1.55737V27.2677C1.77481 26.841 2.0784 26.4964 2.46814 26.2338C2.86199 25.9713 3.33173 25.84 3.87737 25.84C4.32455 25.84 4.74302 25.9241 5.13276 26.0923C5.5225 26.2605 5.86507 26.4944 6.16045 26.7938C6.45994 27.0892 6.69378 27.4318 6.86199 27.8215C7.03019 28.2113 7.1143 28.6297 7.1143 29.0769C7.1143 29.5241 7.03019 29.9446 6.86199 30.3385C6.69378 30.7323 6.45994 31.079 6.16045 31.3785C5.86507 31.6738 5.5225 31.9056 5.13276 32.0738C4.74302 32.242 4.32455 32.3261 3.87737 32.3261C3.33173 32.3261 2.86199 32.1949 2.46814 31.9323C2.0784 31.6697 1.77481 31.3251 1.55737 30.8985V35.2308ZM3.87122 26.4923C3.40353 26.4923 2.99943 26.6092 2.65891 26.8431C2.3225 27.0728 2.06199 27.3826 1.87737 27.7723C1.69686 28.162 1.6066 28.5969 1.6066 29.0769C1.6066 29.5487 1.69686 29.9815 1.87737 30.3754C2.05789 30.7692 2.31635 31.0851 2.65276 31.3231C2.99327 31.5569 3.39943 31.6738 3.87122 31.6738C4.33481 31.6738 4.75943 31.559 5.14507 31.3292C5.53481 31.0995 5.84866 30.7897 6.0866 30.4C6.32455 30.0061 6.44353 29.5651 6.44353 29.0769C6.44353 28.6051 6.32661 28.1744 6.09276 27.7846C5.86302 27.3908 5.55327 27.0769 5.16353 26.8431C4.77789 26.6092 4.34712 26.4923 3.87122 26.4923ZM16.7423 32.1538V26H17.4069V26.9415C17.6284 26.601 17.9218 26.3302 18.2869 26.1292C18.652 25.9282 19.05 25.8277 19.4807 25.8277C19.7228 25.8277 19.9546 25.8585 20.1761 25.92L19.8992 26.5723C19.7228 26.5231 19.5505 26.4985 19.3823 26.4985C19.0213 26.4985 18.691 26.5867 18.3915 26.7631C18.092 26.9395 17.852 27.1774 17.6715 27.4769C17.4951 27.7764 17.4069 28.1087 17.4069 28.4738V32.1538H16.7423ZM31.898 32.3138C31.3319 32.3138 30.815 32.1682 30.3473 31.8769C29.8837 31.5856 29.5124 31.1959 29.2334 30.7077C28.9586 30.2154 28.8211 29.6718 28.8211 29.0769C28.8211 28.6256 28.9011 28.2051 29.0611 27.8154C29.2211 27.4215 29.4406 27.0769 29.7196 26.7815C30.0027 26.482 30.3309 26.2482 30.7042 26.08C31.0775 25.9118 31.4755 25.8277 31.898 25.8277C32.4642 25.8277 32.9791 25.9733 33.4427 26.2646C33.9104 26.5559 34.2816 26.9477 34.5565 27.44C34.8355 27.9323 34.975 28.4779 34.975 29.0769C34.975 29.5241 34.895 29.9426 34.735 30.3323C34.575 30.722 34.3534 31.0667 34.0704 31.3661C33.7914 31.6615 33.4652 31.8933 33.0919 32.0615C32.7227 32.2297 32.3247 32.3138 31.898 32.3138ZM31.898 31.6492C32.3534 31.6492 32.7616 31.5302 33.1227 31.2923C33.4878 31.0544 33.777 30.7405 33.9904 30.3508C34.2037 29.961 34.3104 29.5364 34.3104 29.0769C34.3104 28.6133 34.2037 28.1846 33.9904 27.7908C33.777 27.3969 33.4878 27.0831 33.1227 26.8492C32.7575 26.6113 32.3493 26.4923 31.898 26.4923C31.4427 26.4923 31.0324 26.6113 30.6673 26.8492C30.3021 27.0872 30.0129 27.4031 29.7996 27.7969C29.5904 28.1867 29.4857 28.6133 29.4857 29.0769C29.4857 29.5569 29.5945 29.9918 29.8119 30.3815C30.0334 30.7672 30.3268 31.0749 30.6919 31.3046C31.057 31.5344 31.4591 31.6492 31.898 31.6492ZM47.5463 26.6646H45.9894L45.9832 32.1538H45.3186L45.3248 26.6646H44.1494V26H45.3248L45.3186 24.0677H45.9832L45.9894 26H47.5463V26.6646ZM59.7269 32.3138C59.1607 32.3138 58.6438 32.1682 58.1761 31.8769C57.7125 31.5856 57.3413 31.1959 57.0623 30.7077C56.7874 30.2154 56.65 29.6718 56.65 29.0769C56.65 28.6256 56.73 28.2051 56.89 27.8154C57.05 27.4215 57.2695 27.0769 57.5484 26.7815C57.8315 26.482 58.1597 26.2482 58.533 26.08C58.9064 25.9118 59.3043 25.8277 59.7269 25.8277C60.293 25.8277 60.8079 25.9733 61.2715 26.2646C61.7392 26.5559 62.1105 26.9477 62.3854 27.44C62.6643 27.9323 62.8038 28.4779 62.8038 29.0769C62.8038 29.5241 62.7238 29.9426 62.5638 30.3323C62.4038 30.722 62.1823 31.0667 61.8992 31.3661C61.6202 31.6615 61.2941 31.8933 60.9207 32.0615C60.5515 32.2297 60.1536 32.3138 59.7269 32.3138ZM59.7269 31.6492C60.1823 31.6492 60.5905 31.5302 60.9515 31.2923C61.3166 31.0544 61.6059 30.7405 61.8192 30.3508C62.0325 29.961 62.1392 29.5364 62.1392 29.0769C62.1392 28.6133 62.0325 28.1846 61.8192 27.7908C61.6059 27.3969 61.3166 27.0831 60.9515 26.8492C60.5864 26.6113 60.1782 26.4923 59.7269 26.4923C59.2715 26.4923 58.8613 26.6113 58.4961 26.8492C58.131 27.0872 57.8418 27.4031 57.6284 27.7969C57.4192 28.1867 57.3146 28.6133 57.3146 29.0769C57.3146 29.5569 57.4233 29.9918 57.6407 30.3815C57.8623 30.7672 58.1556 31.0749 58.5207 31.3046C58.8859 31.5344 59.2879 31.6492 59.7269 31.6492ZM76.9122 30.7077L77.503 31.0277C77.224 31.4174 76.8691 31.7292 76.4383 31.9631C76.0117 32.1969 75.5481 32.3138 75.0476 32.3138C74.4814 32.3138 73.9645 32.1682 73.4968 31.8769C73.0332 31.5856 72.6619 31.1959 72.383 30.7077C72.1081 30.2154 71.9706 29.6718 71.9706 29.0769C71.9706 28.6256 72.0506 28.2051 72.2106 27.8154C72.3706 27.4215 72.5901 27.0769 72.8691 26.7815C73.1522 26.482 73.4804 26.2482 73.8537 26.08C74.2271 25.9118 74.625 25.8277 75.0476 25.8277C75.5481 25.8277 76.0117 25.9446 76.4383 26.1785C76.8691 26.4123 77.224 26.7261 77.503 27.12L76.9122 27.4338C76.6783 27.1302 76.3953 26.8985 76.063 26.7385C75.7306 26.5744 75.3922 26.4923 75.0476 26.4923C74.5963 26.4923 74.1881 26.6113 73.823 26.8492C73.4578 27.0831 73.1686 27.3969 72.9553 27.7908C72.7419 28.1805 72.6353 28.6092 72.6353 29.0769C72.6353 29.5487 72.744 29.9795 72.9614 30.3692C73.1789 30.759 73.4701 31.0708 73.8353 31.3046C74.2004 31.5344 74.6045 31.6492 75.0476 31.6492C75.4209 31.6492 75.7717 31.561 76.0999 31.3846C76.4281 31.2082 76.6989 30.9826 76.9122 30.7077ZM89.8274 32.3138C89.2612 32.3138 88.7443 32.1682 88.2766 31.8769C87.813 31.5856 87.4417 31.1959 87.1628 30.7077C86.8879 30.2154 86.7505 29.6718 86.7505 29.0769C86.7505 28.6256 86.8305 28.2051 86.9905 27.8154C87.1505 27.4215 87.3699 27.0769 87.6489 26.7815C87.932 26.482 88.2602 26.2482 88.6335 26.08C89.0069 25.9118 89.4048 25.8277 89.8274 25.8277C90.3935 25.8277 90.9084 25.9733 91.372 26.2646C91.8397 26.5559 92.211 26.9477 92.4858 27.44C92.7648 27.9323 92.9043 28.4779 92.9043 29.0769C92.9043 29.5241 92.8243 29.9426 92.6643 30.3323C92.5043 30.722 92.2828 31.0667 91.9997 31.3661C91.7207 31.6615 91.3946 31.8933 91.0212 32.0615C90.652 32.2297 90.254 32.3138 89.8274 32.3138ZM89.8274 31.6492C90.2828 31.6492 90.691 31.5302 91.052 31.2923C91.4171 31.0544 91.7064 30.7405 91.9197 30.3508C92.133 29.961 92.2397 29.5364 92.2397 29.0769C92.2397 28.6133 92.133 28.1846 91.9197 27.7908C91.7064 27.3969 91.4171 27.0831 91.052 26.8492C90.6869 26.6113 90.2787 26.4923 89.8274 26.4923C89.372 26.4923 88.9617 26.6113 88.5966 26.8492C88.2315 27.0872 87.9423 27.4031 87.7289 27.7969C87.5197 28.1867 87.4151 28.6133 87.4151 29.0769C87.4151 29.5569 87.5238 29.9918 87.7412 30.3815C87.9628 30.7672 88.2561 31.0749 88.6212 31.3046C88.9864 31.5344 89.3884 31.6492 89.8274 31.6492ZM102.488 32.1538V22.9231H103.153V32.1538H102.488Z" fill="#303940"/>
</svg>
