<svg width="25" height="16" viewBox="0 0 25 16" fill="none" xmlns="http://www.w3.org/2000/svg">
<circle cx="8" cy="8" r="8" fill="#06D8B7"/>
<g filter="url(#filter0_i_7621_31597)">
<path d="M3.13438 11.4C3.32993 11.3348 3.40878 11.1467 3.47211 11.1256L3.89425 11.7377L3.85204 11.8855C3.85204 11.9488 3.76233 11.991 3.80982 12.0755C3.9618 12.3456 4.33752 12.3428 4.50639 12.3077L4.99188 12.4132C6.19504 12.7298 6.93199 12.7722 8.11589 12.4765C9.341 12.1706 10.3041 11.407 10.9233 10.8723C11.1344 10.7245 11.4048 10.3062 11.7465 9.838C12.3164 9.05699 12.8934 6.35515 13.2241 4.77203C13.2874 3.63219 12.4431 3.44221 12.4431 3.44221C11.9365 3.18892 9.59346 3.75883 9.59346 3.75883C6.95494 3.82216 6.02618 4.51873 6.02618 4.51873C4.5275 5.63746 4.10533 7.2839 4.10533 7.2839C3.95758 7.79753 3.65362 8.9219 3.61985 9.31029C3.58607 9.69868 3.08512 10.5557 2.83886 10.9356C2.77553 11.1889 3.00771 11.4422 3.13438 11.4Z" fill="white" fill-opacity="0.05"/>
<path d="M3.39226 11.2006C3.33624 11.267 3.25901 11.3585 3.13438 11.4C3.00771 11.4422 2.77553 11.1889 2.83886 10.9356C3.08512 10.5557 3.58607 9.69868 3.61985 9.31029C3.65362 8.9219 3.95758 7.79753 4.10533 7.2839C4.10533 7.2839 4.5275 5.63746 6.02618 4.51873C6.02618 4.51873 6.95494 3.82216 9.59346 3.75883C9.59346 3.75883 11.9365 3.18892 12.4431 3.44221C12.4431 3.44221 13.2874 3.63219 13.2241 4.77203C12.8934 6.35515 12.3164 9.05699 11.7465 9.838C11.6747 9.93642 11.606 10.0326 11.5403 10.1246C11.2937 10.4701 11.09 10.7556 10.9233 10.8723C10.3041 11.407 9.341 12.1706 8.11589 12.4765C6.93199 12.7722 6.19504 12.7298 4.99188 12.4132L4.50639 12.3077C4.33752 12.3428 3.9618 12.3456 3.80982 12.0755C3.78066 12.0236 3.80322 11.9877 3.82498 11.953C3.83866 11.9312 3.85204 11.9099 3.85204 11.8855L3.89163 11.7469C3.91054 11.7526 3.93294 11.7445 3.97212 11.7259C4.06879 11.68 4.17307 11.6934 4.38961 11.7794C4.6316 11.8755 4.65493 11.8611 4.70158 11.587C4.71736 11.4942 4.79616 11.4106 4.88465 11.3929C5.00809 11.3682 5.09853 11.4092 5.32768 11.5936C5.36289 11.622 5.39241 11.6324 5.40322 11.6202C5.413 11.6093 5.45634 11.4964 5.49952 11.3694C5.54271 11.2424 5.5878 11.1267 5.59975 11.1122C5.63674 11.0675 5.70858 11.0823 5.99593 11.194C6.20108 11.2738 6.28249 11.2966 6.30716 11.2813C6.32555 11.2699 6.35379 11.2047 6.36996 11.1365C6.3861 11.0683 6.40833 10.9747 6.41938 10.9285C6.45381 10.7844 6.64431 10.6451 6.80718 10.6451C6.83021 10.6451 6.90213 10.6735 6.96705 10.7081C7.17149 10.8172 7.22679 10.7947 7.25542 10.5907C7.27973 10.4175 7.35256 10.2876 7.47989 10.1905C7.59605 10.1019 7.7165 10.0838 7.89364 10.1283C7.96794 10.147 8.04806 10.1623 8.07167 10.1623C8.14797 10.1623 8.19088 10.0945 8.20589 9.95041C8.2303 9.71593 8.39288 9.45668 8.54753 9.40564C8.59386 9.39033 8.67347 9.38674 8.76416 9.39586C8.85141 9.40461 8.91253 9.4022 8.92028 9.38968C8.92727 9.37837 8.94662 9.26532 8.96329 9.13847C8.99789 8.87514 9.02606 8.79501 9.12278 8.68483C9.21738 8.57711 9.29284 8.54312 9.48527 8.5216C9.7786 8.48877 9.82972 8.43147 9.85821 8.10357C9.87878 7.86654 9.90779 7.7849 10.0127 7.6688C10.1084 7.56288 10.2403 7.50675 10.4622 7.47752C10.6683 7.45038 10.7718 7.40648 10.8117 7.32922C10.8277 7.29834 10.8605 7.19333 10.8847 7.09587C10.9321 6.9044 11.0452 6.64651 11.131 6.53394C11.212 6.42778 11.2991 6.3835 11.4272 6.38342C11.7062 6.38321 11.8459 6.19646 11.9009 5.7504C11.9173 5.61751 11.9454 5.4804 11.9633 5.44569C11.9813 5.41101 12.0669 5.33356 12.1536 5.27363C12.3428 5.14285 12.4009 5.06725 12.4135 4.93554C12.4258 4.80783 12.3773 4.71084 12.2812 4.67066C12.2413 4.65397 12.2205 4.64513 12.1994 4.64413C12.1755 4.64299 12.1511 4.65187 12.0982 4.67078C11.8655 4.75381 11.7195 4.97557 11.6739 5.31515C11.6557 5.45061 11.5608 5.59055 11.4385 5.66244C11.3515 5.71358 11.3134 5.72235 11.1692 5.72443C11.0768 5.72575 10.989 5.72813 10.974 5.72968C10.9202 5.73527 10.8858 5.87288 10.8855 6.08349C10.885 6.40155 10.835 6.46021 10.5411 6.487C10.243 6.51417 10.1721 6.59821 10.172 6.9246C10.172 7.28935 10.0676 7.39021 9.68914 7.39124C9.51472 7.39172 9.4521 7.41479 9.38685 7.50267C9.34818 7.55476 9.34356 7.58688 9.34801 7.77261C9.3567 8.13636 9.31526 8.17555 8.92028 8.17721L8.67026 8.17827C8.66211 8.17831 8.65434 8.1817 8.64878 8.18766L8.57635 8.26526C8.51284 8.33332 8.48345 8.39259 8.44104 8.53818C8.35925 8.81898 8.2939 8.93619 8.18284 9.00127C8.09873 9.05055 8.06038 9.05747 7.80555 9.06931C7.53024 9.08212 7.52043 9.0842 7.47275 9.1396C7.44576 9.17101 7.41785 9.2321 7.41076 9.27535C7.35643 9.60655 7.31809 9.68356 7.17048 9.75813C7.09782 9.79483 7.04122 9.80537 6.9166 9.80537C6.64729 9.80537 6.61143 9.83148 6.56102 10.0643C6.51526 10.2757 6.40445 10.4135 6.24594 10.4562C6.1597 10.4794 6.09878 10.4722 5.96752 10.4229C5.92398 10.4066 5.84676 10.3932 5.79591 10.3932C5.66911 10.3932 5.59322 10.462 5.49876 10.6626C5.45707 10.7511 5.4027 10.8457 5.37792 10.8728C5.22464 11.0403 5.02648 11.0114 4.78098 10.7857C4.71214 10.7224 4.63549 10.6642 4.61063 10.6563C4.53782 10.6332 4.43808 10.7074 4.34268 10.8556C4.1766 11.1137 4.11496 11.1907 4.04906 11.2223C3.95299 11.2683 3.87674 11.2617 3.68483 11.191C3.62618 11.1693 3.56891 11.1502 3.53014 11.1388C3.50913 11.1327 3.49532 11.151 3.50528 11.1705C3.50743 11.1747 3.50959 11.1789 3.51174 11.1831L3.47211 11.1256C3.44914 11.1332 3.42413 11.1629 3.39226 11.2006Z" fill="white"/>
</g>
<circle cx="17" cy="8" r="8" fill="white"/>
<path fill-rule="evenodd" clip-rule="evenodd" d="M19.8148 2.98232C19.78 3.01633 19.7452 3.05034 19.71 3.08403C19.6892 3.10727 19.6683 3.13047 19.6474 3.15367C19.5512 3.2606 19.455 3.36752 19.3636 3.47876C19.2153 3.65929 19.0703 3.84231 18.9351 4.03293C18.8911 4.09497 18.891 4.09491 18.8253 4.06992L18.8219 4.06861C18.5152 3.95187 18.1988 3.87054 17.8755 3.81653C17.5147 3.75624 17.1509 3.73936 16.7858 3.75209C16.5308 3.76098 16.2761 3.77735 16.0248 3.82456C15.7342 3.8792 15.4506 3.95883 15.1769 4.0717C15.1338 4.08951 15.1083 4.08367 15.0767 4.04667C14.9212 3.86422 14.763 3.68392 14.6035 3.50484C14.5281 3.42014 14.451 3.33686 14.374 3.25358C14.3362 3.21268 14.2983 3.17179 14.2607 3.13072C14.2565 3.12611 14.2529 3.12089 14.2494 3.11568C14.2477 3.11331 14.2461 3.11094 14.2444 3.10862C14.2191 3.08367 14.1938 3.05874 14.1685 3.03381C14.1064 2.97264 14.0442 2.91148 13.9823 2.85015C13.7647 2.63486 13.5352 2.43359 13.2772 2.26768C13.0837 2.1433 12.8799 2.04284 12.6486 2.00692C12.5167 1.98645 12.4591 2.00774 12.388 2.12074C12.3262 2.21904 12.2884 2.32755 12.2595 2.43861C12.2061 2.64313 12.192 2.85326 12.1842 3.06326C12.1778 3.23371 12.1799 3.40432 12.1884 3.57507C12.197 3.75008 12.2095 3.92453 12.2276 4.09869C12.2452 4.26802 12.2682 4.43663 12.2932 4.60508C12.2989 4.64348 12.306 4.68169 12.313 4.71988C12.3259 4.79022 12.3389 4.86055 12.3435 4.93214C12.3527 4.97382 12.362 5.01548 12.3713 5.05715C12.3918 5.14864 12.4122 5.24013 12.4317 5.33181C12.471 5.51633 12.5192 5.69856 12.5709 5.87986C12.6386 6.11758 12.7154 6.35232 12.8079 6.58172C12.8174 6.6052 12.8102 6.62621 12.8002 6.64803C12.6999 6.86596 12.6031 7.08545 12.5201 7.31065C12.506 7.34897 12.4923 7.35511 12.4652 7.31939C12.4643 7.32224 12.4633 7.32483 12.4625 7.32704C12.461 7.3309 12.4599 7.3336 12.4608 7.33449C12.4977 7.37295 12.4829 7.41201 12.4682 7.45107C12.4664 7.45592 12.4646 7.46076 12.4629 7.46561C12.3802 7.69716 12.3117 7.93275 12.2543 8.17188C12.2184 8.32116 12.1855 8.47105 12.1597 8.62209C12.1294 8.80045 12.1036 8.97962 12.0891 9.16042C12.0885 9.16893 12.0878 9.17743 12.0871 9.18594C12.0767 9.31529 12.0663 9.44447 12.0645 9.57425C12.0715 9.57305 12.0785 9.57185 12.0856 9.57065C12.1997 9.55123 12.3139 9.53181 12.4294 9.52249C12.6771 9.50249 12.9237 9.50463 13.1706 9.54255C13.8341 9.64446 14.3632 9.9802 14.8058 10.4697L14.8525 10.5213C14.8651 10.4922 14.8774 10.4636 14.8896 10.4354C14.9145 10.3776 14.9389 10.3213 14.9631 10.2649C15.0377 10.0915 15.1274 9.92584 15.225 9.76443C15.242 9.73625 15.2585 9.70779 15.275 9.67934C15.3284 9.58716 15.3817 9.49512 15.4535 9.41332C15.7108 9.11992 16.0129 8.89566 16.3886 8.77822C16.5789 8.71877 16.7738 8.6785 16.9729 8.67903C17.3568 8.67999 17.7198 8.76817 18.0496 8.97144C18.2634 9.1033 18.4486 9.2692 18.6131 9.45861C18.6598 9.51242 18.6986 9.57155 18.7296 9.63555C18.7523 9.68233 18.7755 9.72887 18.7987 9.7754C18.8807 9.94017 18.9628 10.1049 19.0217 10.2802C19.0402 10.3353 19.0586 10.3905 19.0774 10.4471C19.0853 10.4707 19.0932 10.4947 19.1013 10.5189C19.1238 10.4966 19.146 10.4745 19.1679 10.4525C19.2151 10.4052 19.2615 10.3588 19.3091 10.3137C19.5668 10.0699 19.8564 9.87326 20.1847 9.73737C20.437 9.63288 20.6999 9.57112 20.9728 9.54362C21.2092 9.5198 21.4432 9.5311 21.6777 9.55568C21.7269 9.56085 21.7758 9.56887 21.8247 9.57689C21.8471 9.58057 21.8695 9.58425 21.892 9.58766C21.9053 9.55168 21.8998 9.51585 21.8943 9.48009C21.8917 9.46279 21.889 9.44551 21.8885 9.42824C21.8845 9.29015 21.8758 9.15199 21.8636 9.01434C21.8495 8.85542 21.8299 8.69703 21.8048 8.53934C21.7637 8.28144 21.7071 8.02708 21.6323 7.77689C21.5865 7.62375 21.5314 7.47374 21.4757 7.32392C21.4281 7.19573 21.3662 7.07434 21.3044 6.95295C21.2644 6.87461 21.2245 6.79628 21.1884 6.71611C21.1563 6.64474 21.138 6.58095 21.1654 6.49806C21.2588 6.21538 21.3387 5.92831 21.4144 5.64025C21.4788 5.39555 21.5415 5.15039 21.5945 4.9029C21.5967 4.89274 21.5999 4.88278 21.6031 4.87282C21.6046 4.86819 21.6061 4.86356 21.6074 4.85891C21.6132 4.81479 21.6228 4.77139 21.6324 4.72802C21.6387 4.69958 21.645 4.67115 21.6502 4.64253L21.6554 4.61383C21.6881 4.43329 21.7209 4.25276 21.7473 4.07106C21.7826 3.8293 21.807 3.58652 21.8164 3.34275C21.8279 3.04428 21.8163 2.74681 21.7385 2.4555C21.7007 2.31414 21.6513 2.17828 21.5734 2.05312C21.5553 2.02407 21.5369 2.01846 21.5064 2.02081C21.2939 2.03728 21.094 2.10034 20.9012 2.18691C20.6049 2.32002 20.3433 2.5065 20.0979 2.71741C19.9998 2.80177 19.9073 2.89204 19.8148 2.98232ZM19.7748 4.6188C19.7888 4.64298 19.8101 4.6594 19.8314 4.67584C19.8441 4.68566 19.8569 4.69548 19.868 4.70696C19.9062 4.7462 19.945 4.78491 19.9837 4.82363C20.0796 4.91956 20.1755 5.01549 20.2637 5.11924C20.362 5.23497 20.4557 5.35396 20.5459 5.47588C20.6409 5.60412 20.7304 5.7362 20.8157 5.871C20.8194 5.87672 20.8222 5.88335 20.825 5.88995C20.8319 5.9063 20.8388 5.92244 20.8575 5.92381C20.8646 5.92431 20.8767 5.88633 20.883 5.86495C20.9052 5.79008 20.9282 5.71547 20.9512 5.64086C20.9823 5.54021 21.0133 5.43955 21.0423 5.33822C21.0995 5.13801 21.1525 4.9368 21.1968 4.73366C21.2454 4.51137 21.2873 4.28779 21.3128 4.06087C21.3298 3.9099 21.3394 3.75887 21.3452 3.6077C21.3499 3.48516 21.3363 3.36273 21.3228 3.24066L21.3189 3.20463C21.3179 3.20184 21.3168 3.19907 21.3157 3.1963C21.3134 3.19043 21.311 3.18457 21.3104 3.17853C21.296 3.05245 21.2569 2.93354 21.2044 2.81889C21.1785 2.76231 21.1727 2.76174 21.1129 2.78539C20.9057 2.86753 20.7099 2.97226 20.5267 3.09829C20.2393 3.29601 19.9772 3.52499 19.7262 3.76663C19.58 3.90734 19.4406 4.05466 19.3046 4.20531C19.2839 4.22825 19.2789 4.2408 19.3086 4.26255L19.3494 4.29237C19.4472 4.3637 19.545 4.43502 19.6391 4.51143C19.6531 4.52282 19.6664 4.5352 19.6797 4.5476C19.7088 4.57466 19.7379 4.60181 19.7748 4.6188ZM12.6684 2.83474C12.6937 2.77798 12.6997 2.76973 12.7282 2.77365C12.803 2.79584 12.878 2.82867 12.9504 2.86439C13.1068 2.94158 13.2563 3.03196 13.3995 3.13174C13.5365 3.22728 13.666 3.33263 13.7937 3.44045C13.97 3.5892 14.1357 3.74893 14.2989 3.91137C14.3621 3.97427 14.4226 4.03982 14.4832 4.10538L14.4832 4.10538C14.5154 4.14022 14.5475 4.17505 14.5801 4.2095C14.5992 4.22967 14.6008 4.24288 14.5751 4.26026C14.4353 4.35471 14.3027 4.45895 14.173 4.56661C14.0333 4.68252 13.9054 4.81107 13.7793 4.94134C13.6233 5.10243 13.4842 5.27759 13.349 5.45626C13.2404 5.59965 13.144 5.75077 13.0481 5.90243L13.0454 5.90735C13.0419 5.91388 13.0383 5.92052 13.0294 5.92052C13.0157 5.92052 13.012 5.90869 13.009 5.89898L13.0089 5.89873L12.9737 5.78699C12.9407 5.68283 12.9078 5.57867 12.8775 5.47375C12.8278 5.30186 12.7796 5.12947 12.7359 4.95596C12.701 4.81684 12.6702 4.67668 12.643 4.53555C12.6225 4.42898 12.6033 4.32228 12.587 4.21513C12.5722 4.11852 12.5606 4.02146 12.552 3.92394C12.5397 3.78314 12.5278 3.64225 12.535 3.50111C12.5467 3.27275 12.5738 3.04689 12.6684 2.83474ZM14.7049 7.06818C14.7667 7.07239 14.8357 7.06665 14.9059 7.06081L14.9562 7.05676C15.0479 7.04982 15.1391 7.03244 15.2261 7.0011C15.2797 6.98176 15.3294 6.95031 15.3506 6.89419C15.3896 6.791 15.3982 6.6824 15.3677 6.57713C15.3201 6.41339 15.2002 6.30297 15.0702 6.20183C14.9571 6.11385 14.8292 6.07852 14.6896 6.10212C14.4487 6.14279 14.2035 6.35614 14.1739 6.60707C14.1609 6.71746 14.1547 6.82293 14.2184 6.92244C14.2613 6.98945 14.3059 7.04552 14.3942 7.05263L14.4128 7.05413L14.4128 7.05413C14.5063 7.06172 14.6003 7.06934 14.7049 7.06818ZM19.2537 7.06969C19.2914 7.07238 19.3446 7.06795 19.4024 7.06313C19.4276 7.06103 19.4537 7.05886 19.4797 7.05717C19.5559 7.05226 19.6281 7.03486 19.6745 6.96243C19.7396 6.8608 19.7664 6.75051 19.7499 6.63213C19.7211 6.4247 19.6 6.27937 19.4246 6.17675C19.2845 6.09476 19.1348 6.06879 18.9776 6.12546C18.8861 6.15846 18.8124 6.21978 18.7431 6.28476C18.6206 6.39978 18.5269 6.53164 18.5131 6.70743C18.5004 6.86888 18.5659 6.96625 18.7189 7.01138C18.8833 7.05985 19.052 7.06599 19.2537 7.06969ZM20.0825 7.75579L20.0825 7.77086C20.0816 7.78937 20.0803 7.80788 20.0791 7.82639C20.0762 7.86935 20.0733 7.91232 20.0739 7.95525C20.0746 8.00266 20.0529 8.03573 20.0235 8.06821C19.9115 8.19177 19.7732 8.27874 19.6269 8.35457C19.4066 8.46863 19.1735 8.54839 18.9334 8.60695C18.7469 8.65244 18.558 8.68682 18.3645 8.68716C18.313 8.68725 18.2636 8.67736 18.2145 8.66551C18.1624 8.65295 18.1463 8.62456 18.1538 8.57621C18.1781 8.41989 18.274 8.30691 18.3814 8.202C18.4938 8.09214 18.6249 8.00696 18.7558 7.92188C18.783 7.90418 18.8102 7.88648 18.8373 7.86857C19.0314 7.74005 19.2291 7.61706 19.4378 7.51289C19.5847 7.43953 19.7337 7.3693 19.9001 7.35463C20.0118 7.34481 20.012 7.34539 20.0427 7.44123L20.0516 7.46897C20.0821 7.56171 20.0823 7.65892 20.0825 7.75579ZM13.9515 7.75506C13.9521 7.76666 13.9531 7.78045 13.9543 7.79583C13.9574 7.83794 13.9614 7.89199 13.9602 7.9459C13.9586 8.01472 13.9922 8.0607 14.0377 8.10457C14.2264 8.28646 14.458 8.39356 14.6989 8.48432C14.8554 8.54334 15.0158 8.58913 15.1793 8.62515C15.3432 8.66128 15.5082 8.68746 15.6762 8.69212C15.7361 8.69376 15.7957 8.68711 15.8533 8.66768C15.9022 8.65121 15.9176 8.62753 15.9097 8.57895C15.9027 8.53633 15.8898 8.49581 15.8704 8.45719C15.7954 8.30791 15.6794 8.19371 15.5451 8.10087C15.1983 7.86119 14.8463 7.6288 14.4573 7.4607C14.339 7.40956 14.2174 7.3677 14.0847 7.36925C14.0397 7.36978 14.02 7.38825 14.0038 7.42658C13.9666 7.51406 13.9608 7.60612 13.9536 7.72168L13.9515 7.75506Z" fill="#F4A817"/>
<path d="M21.8923 9.58767C21.912 9.53427 21.8904 9.48122 21.8888 9.42823C21.8848 9.29012 21.876 9.15201 21.8639 9.01433C21.8498 8.85544 21.8302 8.69702 21.8051 8.53932C21.7639 8.28144 21.7074 8.02705 21.6326 7.77689C21.5868 7.62375 21.5317 7.47374 21.476 7.32391C21.3976 7.11303 21.2807 6.9205 21.1887 6.71608C21.1566 6.64473 21.1383 6.58094 21.1657 6.49806C21.2591 6.21537 21.3389 5.92832 21.4147 5.64025C21.4791 5.39552 21.5418 5.15039 21.5948 4.90288C21.598 4.88801 21.6034 4.87355 21.6077 4.85889C21.7537 5.06801 21.8799 5.28864 21.996 5.51548C22.146 5.80844 22.27 6.11214 22.3703 6.42518C22.4565 6.69434 22.5228 6.96864 22.5716 7.24754C22.6417 7.64764 22.6729 8.05044 22.6665 8.45604C22.6616 8.76413 22.6353 9.07097 22.5844 9.37492C22.4557 10.1429 22.1973 10.8646 21.7976 11.5334C21.3911 12.2134 20.8717 12.7927 20.2324 13.2632C19.8783 13.5237 19.4992 13.7388 19.0943 13.91C18.8575 14.0101 18.6152 14.0935 18.3669 14.1585C18.0973 14.2292 17.8235 14.2778 17.5459 14.3058C17.2061 14.3402 16.8659 14.342 16.5261 14.3131C16.2424 14.289 15.9624 14.2399 15.6856 14.1707C15.3068 14.0759 14.9427 13.9421 14.5941 13.7681C13.7624 13.3529 13.0766 12.7638 12.5249 12.0172C12.2345 11.6241 11.9978 11.2008 11.8103 10.7494C11.703 10.491 11.6126 10.227 11.5412 9.95685C11.467 9.67595 11.4137 9.3908 11.379 9.10201C11.3283 8.68003 11.3213 8.25729 11.3536 7.83405C11.3798 7.49018 11.4348 7.15028 11.5192 6.81585C11.6884 6.14535 11.9584 5.51826 12.3377 4.93905C12.3393 4.93652 12.3417 4.93444 12.3438 4.93213C12.3733 5.06533 12.4036 5.19835 12.432 5.3318C12.4713 5.5163 12.5195 5.69854 12.5712 5.87984C12.6389 6.11757 12.7157 6.35232 12.8082 6.58169C12.8177 6.6052 12.8105 6.62621 12.8005 6.648C12.7002 6.86596 12.6034 7.08544 12.5204 7.31066C12.5063 7.34897 12.4925 7.35511 12.4655 7.31939C12.4631 7.32718 12.4597 7.33309 12.4611 7.33446C12.5025 7.3777 12.4788 7.42171 12.4631 7.46561C12.3805 7.69718 12.312 7.93274 12.2546 8.17187C12.2187 8.32115 12.1857 8.47105 12.16 8.62211C12.1297 8.80044 12.1039 8.97962 12.0894 9.16044C12.0784 9.29827 12.0667 9.43593 12.0647 9.57427C12.0536 9.74595 12.0694 9.91492 12.1145 10.0812C12.1813 10.3272 12.289 10.5549 12.4229 10.7708C12.6924 11.2052 13.0396 11.5715 13.4238 11.9045C13.9578 12.3672 14.5473 12.744 15.1891 13.0394C15.3154 13.0976 15.4406 13.1569 15.5715 13.2054C15.6678 13.2411 15.7644 13.2745 15.8613 13.308C15.9216 13.3289 15.9829 13.3509 16.0442 13.3698C16.2715 13.4398 16.5043 13.4869 16.7406 13.5098C17.0095 13.5359 17.2778 13.5202 17.5448 13.4752C17.7837 13.435 18.0181 13.3768 18.2483 13.3027C18.4856 13.2262 18.717 13.1341 18.9437 13.0296C19.2641 12.8818 19.5715 12.7109 19.8658 12.5165C20.1438 12.3329 20.4074 12.1306 20.6523 11.9047C20.7569 11.8083 20.8616 11.7117 20.9521 11.6012C20.9639 11.5988 20.9691 11.5899 20.9733 11.5799L20.9762 11.5797L20.9773 11.577C20.9819 11.5731 20.9873 11.5697 20.9913 11.5651C21.1587 11.3768 21.3156 11.1808 21.4441 10.9629C21.5155 10.842 21.5915 10.7237 21.651 10.5963C21.7594 10.3639 21.8361 10.1216 21.8741 9.86734C21.888 9.77448 21.8957 9.68152 21.8923 9.58767Z" fill="#F00500"/>
<path d="M19.7098 3.08401C19.5929 3.21439 19.4746 3.34338 19.3633 3.47875C19.215 3.65927 19.0701 3.84229 18.9349 4.03292C18.8901 4.09603 18.8907 4.09488 18.8216 4.06859C18.5149 3.95186 18.1985 3.87053 17.8753 3.81651C17.5145 3.75622 17.1506 3.73935 16.7855 3.75208C16.5306 3.76096 16.2759 3.77733 16.0246 3.82455C15.734 3.87918 15.4503 3.95882 15.1767 4.07169C15.1335 4.0895 15.108 4.08366 15.0765 4.04666C14.9209 3.86421 14.7627 3.68391 14.6033 3.50483C14.4908 3.37852 14.3747 3.2554 14.2604 3.1307C14.2543 3.12399 14.2496 3.116 14.2441 3.10863C14.5775 2.91255 14.9273 2.75197 15.2942 2.63002C15.6009 2.52803 15.9146 2.45494 16.2353 2.40885C16.6444 2.35003 17.0544 2.34123 17.4655 2.37421C17.7479 2.39687 18.0265 2.44492 18.3018 2.51322C18.788 2.6338 19.2468 2.82131 19.6829 3.06631C19.6922 3.07156 19.7008 3.07808 19.7098 3.08401Z" fill="#F00500"/>
<path fill-rule="evenodd" clip-rule="evenodd" d="M20.6516 11.9048C20.7561 11.8084 20.8609 11.7117 20.9513 11.6012L20.9486 11.598C20.947 11.5973 20.945 11.5969 20.9431 11.5965C20.9376 11.5955 20.932 11.5945 20.934 11.5861C20.9346 11.5839 20.9389 11.5826 20.9433 11.5812C20.9452 11.5807 20.947 11.5801 20.9486 11.5795C20.9486 11.5795 20.9486 11.5796 20.9486 11.5797L20.9489 11.5794C20.9488 11.5794 20.9487 11.5794 20.9486 11.5795C20.9502 11.5594 20.9635 11.5486 20.9782 11.5367C20.9825 11.5332 20.9869 11.5296 20.9912 11.5256C20.9924 11.536 20.9874 11.5438 20.9826 11.5512C20.9774 11.5593 20.9725 11.567 20.9765 11.5771C20.978 11.5758 20.9796 11.5745 20.9812 11.5733C20.9845 11.5708 20.9878 11.5682 20.9905 11.5652C21.158 11.3768 21.3148 11.1808 21.4434 10.9629C21.4592 10.936 21.4753 10.9093 21.4914 10.8826C21.5477 10.789 21.604 10.6954 21.6502 10.5963C21.7587 10.364 21.8354 10.1216 21.8733 9.86738C21.8872 9.7745 21.895 9.68156 21.8915 9.58767C21.869 9.58426 21.8466 9.58058 21.8242 9.57689C21.7753 9.56887 21.7264 9.56084 21.6773 9.55569C21.4428 9.53112 21.2088 9.51983 20.9723 9.54363C20.6995 9.57113 20.4365 9.63289 20.1842 9.73738C19.856 9.87328 19.5663 10.0699 19.3087 10.3138C19.2611 10.3588 19.2148 10.4051 19.1677 10.4523C19.1457 10.4743 19.1235 10.4966 19.1009 10.5189C19.0912 10.4899 19.0817 10.4614 19.0723 10.4331C19.0551 10.3814 19.0382 10.3308 19.0212 10.2802C18.9623 10.1049 18.8802 9.94011 18.7981 9.77532C18.775 9.72881 18.7518 9.6823 18.7292 9.63556C18.6981 9.57154 18.6593 9.51241 18.6126 9.4586C18.4481 9.26922 18.263 9.10331 18.0491 8.97146C17.7194 8.76819 17.3563 8.68 16.9724 8.67902C16.7734 8.67852 16.5784 8.71876 16.3882 8.77824C16.0124 8.89568 15.7104 9.11991 15.453 9.41333C15.3812 9.49515 15.3279 9.5872 15.2745 9.67939C15.258 9.70783 15.2415 9.73628 15.2245 9.76445C15.1269 9.92585 15.0373 10.0915 14.9626 10.265L14.8521 10.5213L14.8053 10.4697C14.3627 9.98019 13.8336 9.64447 13.1701 9.54256C12.9232 9.50462 12.6767 9.50252 12.4289 9.52251C12.3132 9.53184 12.1988 9.55132 12.0845 9.57079C12.0776 9.57196 12.0708 9.57312 12.064 9.57428C12.0528 9.74597 12.0686 9.91494 12.1138 10.0812C12.1805 10.3272 12.2882 10.5549 12.4222 10.7708C12.6916 11.2053 13.0389 11.5716 13.4231 11.9045C13.957 12.3672 14.5465 12.744 15.1884 13.0394C15.2029 13.0461 15.2175 13.0529 15.2321 13.0596C15.3436 13.1111 15.455 13.1626 15.5707 13.2054C15.6671 13.2411 15.7637 13.2745 15.8605 13.308C15.8729 13.3123 15.8853 13.3166 15.8978 13.321C15.946 13.3378 15.9947 13.3548 16.0435 13.3698C16.2707 13.4398 16.5035 13.4869 16.7398 13.5098C17.0088 13.5359 17.2771 13.5202 17.544 13.4753C17.783 13.435 18.0173 13.3768 18.2475 13.3027C18.4848 13.2262 18.7163 13.1341 18.9429 13.0296C19.2634 12.8819 19.5707 12.7109 19.8651 12.5165C20.1431 12.333 20.4066 12.1306 20.6516 11.9048ZM18.3162 11.2743L18.4147 11.2743L18.3891 11.3802C18.3659 11.4763 18.343 11.5709 18.3205 11.6656C18.3144 11.6915 18.2971 11.6915 18.2759 11.6915C18.2018 11.6912 18.2015 11.6919 18.1749 11.7612L18.1745 11.7623L18.0828 12.0011L18.0299 12.1386C18.0208 12.1214 18.0101 12.1055 17.9997 12.0901C17.9749 12.053 17.9514 12.018 17.9521 11.9698C17.9532 11.9037 17.9537 11.8375 17.9541 11.7714V11.7714V11.7714V11.7713C17.9547 11.6896 17.9553 11.6079 17.957 11.5263C17.9577 11.4927 17.9519 11.4852 17.9168 11.4913C17.6067 11.5454 17.2941 11.5721 16.9794 11.5602C16.7843 11.5528 16.5893 11.5385 16.3973 11.4991C16.3818 11.496 16.366 11.4945 16.3509 11.4932L16.3508 11.4932L16.3508 11.4932C16.344 11.4926 16.3374 11.492 16.3309 11.4912C16.3309 11.534 16.3306 11.5767 16.3303 11.6193V11.6193V11.6194C16.3296 11.7217 16.3288 11.8238 16.3323 11.9257C16.335 12.0038 16.3294 12.0752 16.27 12.136C16.2186 12.0671 16.1865 11.9867 16.1588 11.9048L16.1574 11.9009L16.1574 11.9009C16.1373 11.8414 16.117 11.7814 16.1103 11.7185C16.1054 11.6713 16.0729 11.6753 16.0442 11.6841C16.0007 11.6974 15.9875 11.6843 15.9789 11.6407C15.9685 11.5878 15.9591 11.5349 15.9555 11.4816C15.9529 11.4433 15.9409 11.4149 15.9111 11.3911C15.8948 11.3781 15.88 11.3632 15.8651 11.3483L15.8651 11.3483L15.8651 11.3483L15.8651 11.3483C15.8582 11.3413 15.8512 11.3344 15.8441 11.3276C15.8313 11.3153 15.8338 11.2997 15.8361 11.2852L15.8363 11.2842C15.8382 11.2716 15.8476 11.2729 15.8559 11.2741L15.8559 11.2741C15.8583 11.2745 15.8605 11.2748 15.8625 11.2748C15.9312 11.275 15.9999 11.2754 16.0686 11.2759L16.0688 11.2759L16.2415 11.2769C16.2651 11.277 16.2845 11.2806 16.285 11.31C16.2853 11.3286 16.2973 11.3292 16.3107 11.3298L16.3136 11.33C16.4782 11.3389 16.6429 11.3392 16.8076 11.3395L16.8588 11.3395C16.8782 11.3396 16.8897 11.3336 16.8991 11.3167C16.9091 11.2987 16.9199 11.2811 16.9306 11.2635L16.9306 11.2635L16.9306 11.2635C16.9421 11.2446 16.9536 11.2257 16.9643 11.2063L16.9643 11.2061C16.9825 11.1731 16.9994 11.1421 17.0463 11.1536C17.0675 11.1589 17.0715 11.1446 17.0714 11.1264L17.0714 11.1171V11.117C17.0709 11.0031 17.0704 10.8892 17.0716 10.7753C17.0718 10.7529 17.0593 10.7479 17.0447 10.742L17.0382 10.7394C16.8615 10.6628 16.6948 10.5702 16.5593 10.4302C16.4474 10.3145 16.3785 10.1812 16.3885 10.014C16.3919 9.95853 16.391 9.90281 16.3901 9.84708C16.3897 9.82111 16.3893 9.79514 16.3893 9.76919C16.3894 9.59547 16.5041 9.48063 16.6778 9.48054C16.9628 9.48041 17.2479 9.48038 17.5329 9.48057C17.6865 9.48066 17.8421 9.63784 17.8369 9.79141C17.8355 9.83156 17.8358 9.87178 17.8361 9.91201C17.8367 9.9995 17.8373 10.087 17.8212 10.1737C17.7871 10.358 17.6846 10.4988 17.5381 10.61C17.4634 10.6667 17.3825 10.7134 17.2929 10.743C17.2729 10.7495 17.2678 10.7593 17.2679 10.7791C17.2688 10.8946 17.2691 11.0101 17.2678 11.1257C17.2675 11.1507 17.2758 11.1592 17.2992 11.1553C17.3364 11.1489 17.3561 11.1657 17.373 11.199C17.3774 11.2077 17.3817 11.2168 17.3861 11.226L17.3861 11.226L17.3861 11.2261C17.4058 11.2673 17.4266 11.3111 17.46 11.3306C17.4878 11.3468 17.5269 11.3436 17.5659 11.3404C17.5822 11.3391 17.5985 11.3378 17.6139 11.3379C17.6479 11.3381 17.6819 11.3381 17.716 11.3381C17.7836 11.338 17.8513 11.338 17.9189 11.3399C17.9537 11.3408 17.9773 11.3338 17.9904 11.2998C17.9959 11.2857 18.0058 11.274 18.0247 11.2741C18.1216 11.2744 18.2185 11.2743 18.3162 11.2743ZM17.0787 11.673V11.6714H16.686H16.6857C16.6468 11.6714 16.6275 11.6714 16.6183 11.6811C16.6092 11.6906 16.6099 11.7095 16.6112 11.747V11.747L16.6113 11.7504C16.6121 11.7711 16.622 11.7805 16.6365 11.7899C16.6646 11.8084 16.6955 11.8208 16.7264 11.8331L16.7264 11.8331C16.738 11.8378 16.7496 11.8424 16.7611 11.8474C16.7903 11.8601 16.8061 11.8573 16.8179 11.8225C16.8401 11.7565 16.8431 11.7567 16.9088 11.7611L16.9152 11.7615C16.9388 11.763 16.9515 11.7737 16.9621 11.7913L16.9927 11.8426L16.9928 11.8427C17.0068 11.8662 17.0208 11.8897 17.035 11.9131C17.0731 11.9759 17.1344 11.9796 17.1823 11.9225L17.2445 11.8489L17.2446 11.8489C17.2788 11.8083 17.296 11.7879 17.3147 11.7864C17.3335 11.7848 17.3538 11.8022 17.3946 11.837L17.3946 11.837C17.397 11.839 17.3992 11.8413 17.4014 11.8435C17.4097 11.8519 17.4178 11.8602 17.4331 11.8565C17.4997 11.8407 17.5493 11.777 17.5513 11.7115C17.5524 11.6764 17.5382 11.6722 17.5084 11.6725C17.4028 11.6734 17.2971 11.6733 17.1915 11.6731H17.1914L17.0787 11.673ZM17.7024 13.4121H17.6602C17.6764 13.4222 17.6888 13.4188 17.7024 13.4121ZM17.6439 13.4222C17.6191 13.4346 17.5976 13.4425 17.5643 13.4323C17.5752 13.431 17.5847 13.4281 17.5938 13.4254C17.6104 13.4205 17.6254 13.416 17.6439 13.4222ZM20.9122 11.6171L20.9196 11.608L20.9147 11.6044L20.9108 11.6158L20.9023 11.6257C20.8894 11.625 20.8836 11.6315 20.8838 11.6441L20.8724 11.647L20.8755 11.6518L20.884 11.6443C20.8931 11.641 20.8992 11.6348 20.9025 11.6258L20.9122 11.6171Z" fill="#FFFEFE"/>
<path d="M12.7286 2.77366C12.8034 2.79587 12.8784 2.82871 12.9508 2.86443C13.1072 2.94159 13.2567 3.03197 13.3998 3.13176C13.5369 3.22729 13.6663 3.33266 13.7941 3.44049C13.9704 3.58921 14.136 3.74896 14.2992 3.91138C14.396 4.00773 14.4866 4.11025 14.5805 4.20953C14.5996 4.22968 14.6011 4.24291 14.5754 4.26027C14.4356 4.35474 14.3031 4.45896 14.1734 4.56662C14.0337 4.68256 13.9058 4.8111 13.7797 4.94135C13.6237 5.10246 13.4846 5.27759 13.3493 5.45627C13.2408 5.59968 13.1444 5.75078 13.0485 5.90246C13.0437 5.91004 13.041 5.92053 13.0297 5.92053C13.016 5.92053 13.0123 5.90851 13.0093 5.89876C12.965 5.75725 12.919 5.61621 12.8779 5.47378C12.8282 5.30189 12.7799 5.12948 12.7363 4.95597C12.7013 4.81687 12.6705 4.67669 12.6434 4.53561C12.6228 4.42904 12.6037 4.32231 12.5873 4.21514C12.5726 4.11856 12.561 4.02147 12.5524 3.92395C12.5401 3.78318 12.5282 3.64229 12.5354 3.50112C12.5471 3.27278 12.5742 3.04692 12.6688 2.83475C12.6941 2.77801 12.7001 2.76974 12.7286 2.77366Z" fill="#F28F1F"/>
<path d="M21.3195 3.20459C21.3341 3.33859 21.3509 3.47307 21.3458 3.60766C21.34 3.75883 21.3304 3.90986 21.3134 4.06083C21.2879 4.28774 21.246 4.51132 21.1974 4.73364C21.1531 4.93675 21.1001 5.13799 21.0429 5.33818C20.9925 5.51466 20.9356 5.68904 20.8836 5.86493C20.8773 5.88628 20.8652 5.92429 20.8581 5.92376C20.8318 5.92184 20.8289 5.89085 20.8163 5.87098C20.731 5.73616 20.6415 5.60412 20.5465 5.47583C20.4563 5.35394 20.3626 5.23495 20.2642 5.11922C20.1405 4.97357 20.0015 4.84338 19.8686 4.70696C19.8387 4.67622 19.7977 4.6574 19.7754 4.61876C19.7837 4.60784 19.7941 4.59795 19.7999 4.5858C19.8581 4.4627 19.9241 4.34382 19.9943 4.2272C20.1005 4.05096 20.2182 3.88257 20.3561 3.72993C20.5009 3.56974 20.6644 3.43119 20.859 3.3333C21.004 3.26037 21.1555 3.2102 21.3195 3.20459Z" fill="#F28B20"/>
<path d="M13.9512 7.75505C13.9597 7.62358 13.9628 7.52234 14.0035 7.42662C14.0198 7.38827 14.0394 7.36979 14.0844 7.36924C14.2171 7.36769 14.3387 7.40958 14.457 7.46072C14.846 7.62879 15.1979 7.86118 15.5448 8.10088C15.6791 8.1937 15.7951 8.30792 15.8701 8.4572C15.8895 8.49583 15.9024 8.53634 15.9094 8.57896C15.9173 8.62754 15.9019 8.6512 15.853 8.66769C15.7954 8.68713 15.7358 8.69378 15.6758 8.69213C15.508 8.68745 15.3429 8.66128 15.179 8.62514C15.0155 8.58913 14.8551 8.54333 14.6986 8.48436C14.4577 8.39357 14.2261 8.2865 14.0374 8.10456C13.9919 8.06069 13.9583 8.01473 13.9599 7.94594C13.9616 7.87228 13.9534 7.79842 13.9512 7.75505Z" fill="#1F1712"/>
<path d="M20.0828 7.77085C20.0796 7.83232 20.0733 7.89382 20.0742 7.95524C20.0748 8.00265 20.0531 8.03572 20.0237 8.0682C19.9117 8.19176 19.7735 8.27874 19.6271 8.35456C19.4069 8.46862 19.1737 8.54838 18.9337 8.60694C18.7472 8.65244 18.5583 8.68681 18.3648 8.68715C18.3132 8.68724 18.2639 8.67735 18.2147 8.6655C18.1626 8.65294 18.1466 8.62455 18.1541 8.5762C18.1783 8.41988 18.2742 8.3069 18.3816 8.202C18.5174 8.06925 18.6805 7.97257 18.8375 7.86858C19.0317 7.74004 19.2294 7.61708 19.438 7.51288C19.5849 7.43952 19.7339 7.36929 19.9004 7.35463C20.0219 7.34394 20.0114 7.34556 20.0519 7.46896C20.084 7.56651 20.0825 7.66901 20.0828 7.77085Z" fill="#1F1713"/>
<path d="M21.3183 3.20459C21.1544 3.2102 21.0028 3.26037 20.8578 3.3333C20.6632 3.43119 20.4997 3.56974 20.355 3.72993C20.217 3.88257 20.0994 4.05096 19.9932 4.2272C19.9229 4.34382 19.857 4.4627 19.7987 4.5858C19.793 4.59793 19.7825 4.60784 19.7742 4.61876C19.7204 4.594 19.6831 4.54762 19.6385 4.51139C19.5313 4.42433 19.4193 4.34389 19.308 4.26253C19.2783 4.24076 19.2833 4.22821 19.304 4.20527C19.44 4.05464 19.5795 3.9073 19.7256 3.76659C19.9766 3.52495 20.2388 3.296 20.5262 3.09827C20.7094 2.97222 20.9051 2.86749 21.1123 2.78538C21.1721 2.7617 21.178 2.7623 21.2038 2.81885C21.2563 2.93353 21.2954 3.05241 21.3098 3.17849C21.3108 3.18739 21.3154 3.19589 21.3183 3.20459Z" fill="#F2991D"/>
<path d="M19.2538 7.06967C19.0521 7.06602 18.8834 7.05985 18.7191 7.01138C18.5661 6.96625 18.5006 6.86891 18.5133 6.70744C18.5271 6.53162 18.6208 6.39979 18.7433 6.28477C18.8125 6.21979 18.8862 6.15847 18.9777 6.12546C19.1349 6.0688 19.2846 6.09479 19.4248 6.17678C19.6001 6.27938 19.7212 6.42468 19.7501 6.63213C19.7666 6.75051 19.7398 6.8608 19.6746 6.96242C19.6282 7.03484 19.5561 7.05227 19.4799 7.0572C19.3939 7.06273 19.308 7.07355 19.2538 7.06967Z" fill="#FFFEFE"/>
<path d="M14.7055 7.06818C14.5939 7.06939 14.4945 7.06065 14.3948 7.05261C14.3065 7.0455 14.2618 6.98943 14.2189 6.92245C14.1552 6.82293 14.1615 6.71746 14.1745 6.60708C14.204 6.35614 14.4493 6.1428 14.6901 6.1021C14.8297 6.07853 14.9577 6.11386 15.0708 6.20184C15.2008 6.30297 15.3207 6.4134 15.3682 6.57711C15.3988 6.6824 15.3901 6.79098 15.3511 6.89419C15.33 6.95031 15.2803 6.98174 15.2266 7.0011C15.1397 7.03244 15.0485 7.04982 14.9568 7.05676C14.8695 7.06334 14.782 7.07339 14.7055 7.06818Z" fill="#FFFEFE"/>
<path d="M20.9502 11.5796C20.9523 11.5534 20.9739 11.5431 20.9929 11.5256C20.9953 11.5474 20.9705 11.5578 20.9782 11.577C20.9782 11.577 20.9771 11.5797 20.9771 11.5797L20.9742 11.5799C20.9662 11.5798 20.9582 11.5797 20.9502 11.5796Z" fill="#F6D9A7"/>
<path d="M20.9499 11.5797C20.9579 11.5797 20.9659 11.5798 20.9739 11.5799C20.9697 11.5899 20.9645 11.5988 20.9527 11.6012C20.9527 11.6012 20.95 11.5979 20.95 11.5979C20.9501 11.5917 20.9502 11.5855 20.9502 11.5794L20.9499 11.5797Z" fill="#FFFEFE"/>
<path d="M18.4145 11.2743C18.3824 11.4071 18.3509 11.5363 18.3202 11.6656C18.3141 11.6915 18.2969 11.6915 18.2756 11.6914C18.2011 11.6912 18.2012 11.6919 18.1743 11.7623C18.1273 11.885 18.08 12.0075 18.0297 12.1386C17.9986 12.08 17.9508 12.0381 17.9519 11.9698C17.9543 11.822 17.9536 11.6741 17.9567 11.5262C17.9574 11.4927 17.9516 11.4852 17.9166 11.4913C17.6065 11.5454 17.2939 11.5721 16.9791 11.5602C16.784 11.5527 16.5891 11.5385 16.3971 11.4991C16.3746 11.4945 16.3515 11.4936 16.3307 11.4912C16.3307 11.6366 16.3271 11.7813 16.3321 11.9257C16.3348 12.0038 16.3292 12.0752 16.2697 12.136C16.2184 12.0671 16.1863 11.9867 16.1585 11.9048C16.1379 11.8441 16.1169 11.7828 16.1101 11.7184C16.1051 11.6712 16.0726 11.6753 16.044 11.6841C16.0005 11.6974 15.9873 11.6843 15.9786 11.6406C15.9682 11.5878 15.9589 11.5349 15.9553 11.4816C15.9526 11.4433 15.9407 11.4149 15.9108 11.3911C15.8869 11.3719 15.8661 11.3488 15.8439 11.3276C15.8308 11.315 15.8337 11.299 15.836 11.2842C15.8385 11.268 15.8531 11.2747 15.8623 11.2748C15.9886 11.2751 16.115 11.2763 16.2413 11.2769C16.2649 11.2769 16.2842 11.2806 16.2847 11.31C16.2851 11.3299 16.2988 11.3292 16.3133 11.33C16.495 11.3398 16.6768 11.3391 16.8586 11.3395C16.878 11.3396 16.8894 11.3336 16.8989 11.3167C16.9196 11.2794 16.9435 11.2437 16.964 11.2062C16.9822 11.1731 16.9991 11.1421 17.046 11.1536C17.0673 11.1588 17.0712 11.1446 17.0712 11.1264C17.0707 11.0094 17.0702 10.8923 17.0713 10.7753C17.0716 10.7496 17.0551 10.7468 17.038 10.7393C16.8612 10.6628 16.6945 10.5702 16.559 10.4302C16.4471 10.3145 16.3783 10.1812 16.3883 10.014C16.3931 9.93268 16.389 9.85078 16.389 9.76915C16.3892 9.59546 16.5038 9.48062 16.6775 9.48053C16.9626 9.48039 17.2476 9.48035 17.5327 9.48053C17.6863 9.48064 17.8418 9.63782 17.8366 9.79137C17.8324 9.91884 17.8444 10.0471 17.821 10.1737C17.7868 10.358 17.6844 10.4988 17.5379 10.6099C17.4631 10.6667 17.3822 10.7134 17.2926 10.7429C17.2727 10.7495 17.2675 10.7593 17.2677 10.7791C17.2685 10.8946 17.2688 11.0101 17.2675 11.1256C17.2673 11.1507 17.2756 11.1592 17.299 11.1553C17.3361 11.1489 17.3559 11.1657 17.3727 11.199C17.3968 11.2464 17.4188 11.3067 17.4598 11.3305C17.4991 11.3535 17.5614 11.3375 17.6136 11.3379C17.7153 11.3385 17.8171 11.337 17.9187 11.3398C17.9535 11.3408 17.977 11.3338 17.9902 11.2998C17.9957 11.2857 18.0056 11.274 18.0245 11.274C18.1538 11.2744 18.283 11.2743 18.4145 11.2743Z" fill="#1D1919"/>
<path d="M17.0796 11.673C17.2228 11.673 17.3661 11.6738 17.5093 11.6725C17.5391 11.6722 17.5533 11.6764 17.5523 11.7115C17.5503 11.777 17.5006 11.8407 17.434 11.8565C17.4146 11.8611 17.4067 11.8465 17.3955 11.837C17.3141 11.7675 17.3141 11.7675 17.2455 11.8489C17.2247 11.8735 17.2039 11.8979 17.1832 11.9225C17.1353 11.9796 17.074 11.9758 17.0359 11.9131C17.0114 11.8727 16.9874 11.8319 16.963 11.7913C16.9524 11.7737 16.9397 11.763 16.9161 11.7615C16.8442 11.7568 16.8417 11.7545 16.8188 11.8225C16.8071 11.8573 16.7913 11.8601 16.762 11.8474C16.72 11.8292 16.6761 11.8153 16.6374 11.7899C16.6229 11.7805 16.613 11.7711 16.6122 11.7503C16.6094 11.6713 16.6083 11.6714 16.6869 11.6715C16.8178 11.6715 16.9487 11.6715 17.0796 11.6715V11.673Z" fill="#171413"/>
<path d="M17.5647 13.4323C17.5955 13.4286 17.6156 13.4127 17.6443 13.4222C17.6195 13.4346 17.5979 13.4426 17.5647 13.4323Z" fill="#F6D9A7"/>
<path d="M17.7037 13.412C17.6901 13.4187 17.6777 13.4221 17.6615 13.412H17.7037Z" fill="#F6D9A7"/>
<path d="M20.95 11.5793C20.9499 11.5855 20.9498 11.5917 20.9497 11.5979C20.9436 11.5953 20.9324 11.5974 20.9352 11.5861C20.936 11.5828 20.9448 11.5815 20.95 11.5793Z" fill="#F6D9A7"/>
<path d="M20.8842 11.6441C20.8839 11.6315 20.8898 11.625 20.9027 11.6256L20.9029 11.6258C20.8996 11.6348 20.8935 11.641 20.8844 11.6443L20.8842 11.6441Z" fill="#F6D9A7"/>
<path d="M20.8857 11.6443C20.8828 11.6468 20.88 11.6493 20.8772 11.6519C20.8762 11.6503 20.8751 11.6486 20.8741 11.647C20.8779 11.6461 20.8817 11.6451 20.8855 11.6442L20.8857 11.6443Z" fill="#F7DDB0"/>
<path d="M20.7489 11.7764C20.7488 11.7776 20.7491 11.7793 20.7484 11.7798C20.7474 11.7806 20.7454 11.7812 20.7444 11.7807C20.7401 11.7788 20.7403 11.7765 20.7449 11.7752C20.7461 11.7749 20.7475 11.7759 20.7489 11.7764Z" fill="#F7DDB0"/>
<path d="M20.9126 11.6157C20.9138 11.6119 20.9151 11.6081 20.9164 11.6043C20.918 11.6055 20.9197 11.6067 20.9214 11.6079C20.9189 11.611 20.9164 11.614 20.9139 11.617L20.9126 11.6157Z" fill="#F6D9A7"/>
<path d="M20.9021 11.6256C20.9051 11.6222 20.908 11.6188 20.9109 11.6154C20.9109 11.6154 20.9123 11.6168 20.9123 11.6168C20.9089 11.6198 20.9056 11.6228 20.9023 11.6258L20.9021 11.6256Z" fill="#F6D9A7"/>
<path d="M20.8569 11.6712C20.8583 11.6692 20.8598 11.6672 20.8613 11.6652C20.8672 11.6704 20.8613 11.671 20.8584 11.6727L20.8569 11.6712Z" fill="#F7DDB0"/>
<path d="M20.8572 11.6726C20.8554 11.6738 20.8535 11.6751 20.8517 11.6763C20.8531 11.6746 20.8544 11.6729 20.8558 11.6711C20.8557 11.6711 20.8572 11.6726 20.8572 11.6726Z" fill="#F7DDB0"/>
<path d="M20.8333 11.6928L20.8344 11.6957L20.8316 11.6955L20.8333 11.6928Z" fill="#F7DDB0"/>
<path d="M20.8095 11.7166C20.8114 11.7132 20.813 11.7084 20.8175 11.7141C20.8176 11.7144 20.814 11.7175 20.8123 11.7193L20.8095 11.7166Z" fill="#F7DDB0"/>
<path d="M20.8126 11.7192C20.8106 11.7203 20.8085 11.7215 20.8065 11.7226C20.8076 11.7206 20.8087 11.7185 20.8098 11.7165C20.8098 11.7164 20.8126 11.7192 20.8126 11.7192Z" fill="#F7DDB0"/>
<path d="M20.7878 11.7341L20.7868 11.7314L20.7893 11.7317L20.7878 11.7341Z" fill="#F7DDB0"/>
<path d="M20.7604 11.7618L20.7595 11.7591L20.762 11.7594L20.7604 11.7618Z" fill="#F7DDB0"/>
<defs>
<filter id="filter0_i_7621_31597" x="2.82812" y="3.37732" width="10.3984" height="9.79883" filterUnits="userSpaceOnUse" color-interpolation-filters="sRGB">
<feFlood flood-opacity="0" result="BackgroundImageFix"/>
<feBlend mode="normal" in="SourceGraphic" in2="BackgroundImageFix" result="shape"/>
<feColorMatrix in="SourceAlpha" type="matrix" values="0 0 0 0 0 0 0 0 0 0 0 0 0 0 0 0 0 0 127 0" result="hardAlpha"/>
<feOffset dy="0.5"/>
<feGaussianBlur stdDeviation="0.25"/>
<feComposite in2="hardAlpha" operator="arithmetic" k2="-1" k3="1"/>
<feColorMatrix type="matrix" values="0 0 0 0 1 0 0 0 0 1 0 0 0 0 1 0 0 0 0.1 0"/>
<feBlend mode="normal" in2="shape" result="effect1_innerShadow_7621_31597"/>
</filter>
</defs>
</svg>
